<?xml version="1.0" encoding="utf-8"?>
<!-- Generator: Adobe Illustrator 23.1.0, SVG Export Plug-In . SVG Version: 6.00 Build 0)  -->
<svg version="1.1" id="Laag_1" xmlns="http://www.w3.org/2000/svg" xmlns:xlink="http://www.w3.org/1999/xlink" x="0px" y="0px"
	 viewBox="0 0 221.8 58.6" style="enable-background:new 0 0 221.8 58.6;" xml:space="preserve">
<g>
	<g>
		<g>
			<path d="M0.9,12.9v-0.3c0.3-0.1,0.6-0.2,0.8-0.4c0.2-0.3,0.3-0.6,0.3-0.9V2.4L0.8,2V1.6c0.6-0.1,1.2-0.2,1.7-0.2s1.2,0,1.9,0
				C6.1,1.3,7.7,1.8,9,2.8c1.2,1,1.8,2.5,1.7,4c0.1,1.8-0.7,3.5-2,4.7c-1.3,1.1-2.9,1.7-4.6,1.7H2.4C1.9,13.1,1.4,13,0.9,12.9z
				 M3.4,12h0.4c0.1,0,0.3,0,0.4,0c1.2,0,2.4-0.4,3.3-1.3c1-1,1.5-2.3,1.4-3.6c0.1-1.3-0.4-2.5-1.4-3.4C6.7,2.8,5.6,2.4,4.4,2.4H3.4
				V12z M12.3,12.9v-0.3c0.2-0.1,0.5-0.2,0.6-0.4c0.2-0.1,0.3-0.4,0.3-0.6V5.6l-1.1-0.5V4.7c0.7-0.2,1.4-0.3,2.1-0.3h0.6l-0.1,1v6.8
				l1,0.3v0.3c-0.3,0.1-0.6,0.2-0.9,0.2c-0.4,0.1-0.8,0.1-1.2,0.1h-0.7C12.7,13.1,12.5,13,12.3,12.9z M14,2.7
				c-0.3,0-0.5-0.1-0.7-0.3C13.1,2.2,13,2,13,1.7c0-0.3,0.1-0.5,0.3-0.7c0.2-0.2,0.5-0.3,0.8-0.3c0.2,0,0.5,0.1,0.7,0.3
				C14.9,1.1,15,1.3,15,1.6c0,0.3-0.1,0.6-0.3,0.8C14.5,2.6,14.3,2.7,14,2.7z M16.8,9.1c-0.1-1.3,0.3-2.6,1.2-3.6
				c0.6-0.8,1.6-1.2,2.6-1.3c0.9,0,1.7,0.3,2.3,0.9c0.6,0.7,0.9,1.6,0.8,2.5v1.1h-5.3c-0.1,0.9,0.2,1.7,0.8,2.3
				c0.5,0.5,1.2,0.9,1.9,0.8c0.5,0,0.9-0.1,1.4-0.2c0.4-0.1,0.8-0.3,1.2-0.6v0.2c0,0.1,0,0.2,0,0.3c0,0.4-0.3,0.8-0.8,1.1
				c-0.7,0.3-1.5,0.5-2.3,0.5c-1,0-1.9-0.4-2.6-1.1C17.1,11.3,16.8,10.2,16.8,9.1z M18.4,7.8h3.9c0.1-0.7-0.1-1.4-0.5-2
				c-0.3-0.4-0.8-0.7-1.3-0.7c-0.6,0-1.1,0.4-1.4,0.8C18.6,6.5,18.4,7.2,18.4,7.8z M25.1,12.9v-0.3c0.2-0.1,0.5-0.2,0.6-0.4
				c0.2-0.1,0.3-0.4,0.3-0.6V5.6l-1.2-0.5V4.7c0.4-0.1,0.8-0.2,1.2-0.3c0.3,0,0.7-0.1,1-0.1h0.4v1c0.3-0.3,0.7-0.6,1.2-0.7
				c0.5-0.2,1-0.3,1.5-0.3c0.7,0,1.3,0.2,1.8,0.7c0.5,0.6,0.8,1.3,0.7,2.1v5.1l0.9,0.3v0.3c-0.3,0.1-0.6,0.2-0.8,0.2
				c-0.3,0.1-0.7,0.1-1,0.1h-0.6c-0.2,0-0.4-0.1-0.6-0.1v-0.3c0.2-0.1,0.3-0.2,0.4-0.4c0.1-0.2,0.2-0.5,0.2-0.8V8
				c0.1-0.7-0.1-1.3-0.5-1.9c-0.3-0.4-0.8-0.6-1.3-0.6c-0.4,0-0.7,0.1-1.1,0.2c-0.3,0.1-0.6,0.2-0.8,0.4v6.1l1,0.3v0.3
				c-0.3,0.1-0.6,0.2-0.9,0.2c-0.4,0.1-0.8,0.1-1.1,0.1h-0.7C25.5,13.1,25.3,13,25.1,12.9z M34.8,11.7c0-0.1,0-0.3,0-0.4
				c0-0.1,0.1-0.2,0.2-0.3c0.4,0.3,0.8,0.6,1.2,0.8c0.4,0.2,0.9,0.3,1.3,0.3c0.4,0,0.8-0.1,1.2-0.3c0.2-0.2,0.3-0.5,0.3-0.8
				c0-0.3-0.1-0.6-0.3-0.8c-0.4-0.3-0.8-0.6-1.2-0.7l-0.9-0.4c-0.5-0.2-0.9-0.5-1.2-0.9C35.1,7.8,35,7.3,35,6.9
				c0-0.7,0.3-1.4,0.8-1.9c0.6-0.6,1.4-0.8,2.3-0.8c0.5,0,1.1,0.1,1.5,0.3c0.3,0.2,0.5,0.5,0.5,0.8c0,0.1,0,0.3,0,0.4
				c0,0.1,0,0.3-0.1,0.4c-0.3-0.2-0.6-0.4-1-0.5c-0.3-0.1-0.7-0.2-1-0.2c-0.5,0-0.9,0.1-1.3,0.3c-0.3,0.2-0.4,0.5-0.4,0.8
				c0,0.3,0.1,0.6,0.3,0.8c0.3,0.3,0.7,0.5,1.1,0.6l1,0.4c0.5,0.2,0.9,0.5,1.3,0.9c0.3,0.4,0.4,0.8,0.4,1.3c0,0.7-0.4,1.4-0.9,1.8
				c-0.7,0.6-1.5,0.9-2.4,0.8c-0.6,0-1.2-0.1-1.7-0.4C35,12.6,34.8,12.2,34.8,11.7z M42.4,10.7v-5h-1V5l2.1-1.9L44.1,3L44,4.7h2.4
				l-0.1,1H44V10c0,0.5,0.1,1.1,0.3,1.5c0.1,0.3,0.4,0.4,0.7,0.5c0.2,0,0.5,0,0.7-0.1c0.2-0.1,0.4-0.2,0.6-0.3l0.2,0.1
				c0,0.5-0.2,0.9-0.5,1.2c-0.4,0.3-0.9,0.4-1.4,0.4c-0.6,0-1.2-0.2-1.6-0.6C42.6,12,42.4,11.3,42.4,10.7z M51.6,9.6V2.3L50.5,2V1.7
				c0.3-0.1,0.7-0.2,1-0.2c0.3,0,0.7-0.1,1-0.1h0.8c0.3,0,0.6,0.1,0.9,0.1v0.4c-0.3,0.1-0.6,0.2-0.8,0.5c-0.2,0.3-0.3,0.6-0.2,1v6
				c0,0.7,0.2,1.5,0.7,2c0.5,0.5,1.2,0.8,1.9,0.7c0.7,0,1.4-0.3,1.9-0.8c0.6-0.7,0.8-1.5,0.8-2.4V2.3L57.3,2V1.7
				c0.3-0.1,0.7-0.2,1-0.2c0.6-0.1,1.2-0.1,1.7,0l0.8,0.1v0.3C60.5,2,60.2,2.2,60,2.4c-0.2,0.3-0.2,0.5-0.2,0.8v5.4
				c0.1,1.2-0.3,2.5-1.2,3.4c-0.8,0.8-1.9,1.2-3,1.1c-1.1,0.1-2.2-0.2-3-0.9C51.9,11.6,51.6,10.6,51.6,9.6z M61.9,12.9v-0.3
				c0.2-0.1,0.5-0.2,0.7-0.4c0.2-0.1,0.3-0.4,0.3-0.6V5.6l-1.2-0.5V4.7c0.7-0.2,1.4-0.3,2.1-0.3h0.6l-0.1,1v6.8l1,0.3v0.3
				C65,12.9,64.7,13,64.4,13c-0.4,0.1-0.8,0.1-1.2,0.1h-0.7C62.3,13.1,62.1,13,61.9,12.9z M63.6,2.7c-0.3,0-0.5-0.1-0.7-0.3
				c-0.2-0.2-0.3-0.5-0.3-0.7c0-0.3,0.1-0.5,0.3-0.7c0.2-0.2,0.5-0.3,0.8-0.3c0.2,0,0.5,0.1,0.7,0.3c0.2,0.2,0.3,0.4,0.3,0.7
				c0,0.3-0.1,0.6-0.3,0.8C64.1,2.6,63.9,2.7,63.6,2.7z M67.2,10.7V8l0.1-2.4h-1V5l2-1.9L68.9,3l-0.1,1.6h2.4l-0.1,1h-2.3V10
				c-0.1,0.5,0,1,0.2,1.5c0.2,0.3,0.5,0.4,0.8,0.4c0.3,0,0.5,0,0.7-0.1c0.2-0.1,0.4-0.2,0.6-0.3l0.2,0.1c0,0.5-0.2,0.9-0.5,1.2
				c-0.4,0.3-0.9,0.4-1.4,0.4c-0.6,0-1.2-0.2-1.6-0.6C67.4,12,67.2,11.3,67.2,10.7L67.2,10.7z M75.5,13.2l-3.1-7.9l-0.7-0.5V4.4h3.4
				v0.4l-1,0.4l1.9,5.7l2-5.7l-1-0.5V4.4h2.8v0.4l-0.5,0.4l-3.2,8L75.5,13.2z M80.1,9.1c-0.1-1.3,0.4-2.6,1.3-3.5
				c0.8-0.8,1.8-1.3,2.9-1.3c1,0,2.1,0.4,2.8,1.2c0.8,0.8,1.2,1.9,1.1,3c0.1,1.3-0.4,2.6-1.3,3.5c-0.7,0.8-1.8,1.3-2.9,1.3
				c-1,0-2-0.4-2.8-1.1C80.4,11.3,80,10.2,80.1,9.1z M81.7,8.9c-0.1,0.9,0.2,1.8,0.7,2.5c0.7,0.9,2,1.1,2.9,0.4
				c0.2-0.1,0.4-0.3,0.5-0.5c0.6-0.8,0.9-1.8,0.8-2.7c0.1-0.9-0.2-1.7-0.7-2.4c-0.4-0.5-1-0.8-1.7-0.8c-0.7,0-1.3,0.4-1.7,0.9
				C81.9,7,81.7,7.9,81.7,8.9z M89.7,9.1c-0.1-1.3,0.3-2.6,1.2-3.6c0.6-0.8,1.6-1.2,2.6-1.3c0.9,0,1.7,0.3,2.3,0.9
				c0.6,0.7,0.9,1.6,0.8,2.5v1.1h-5.3c-0.1,0.9,0.2,1.7,0.7,2.4c0.5,0.5,1.2,0.8,1.9,0.8c0.5,0,0.9-0.1,1.3-0.2
				c0.4-0.1,0.8-0.3,1.2-0.6v0.2c0,0.1,0,0.2,0,0.3c0,0.4-0.3,0.8-0.8,1.1c-0.7,0.3-1.5,0.5-2.3,0.5c-1,0-2-0.4-2.6-1.1
				C90,11.3,89.6,10.2,89.7,9.1z M91.3,7.8h3.9c0.1-0.7-0.1-1.4-0.5-2c-0.3-0.4-0.8-0.7-1.3-0.7c-0.6,0-1.1,0.3-1.4,0.8
				C91.5,6.5,91.3,7.2,91.3,7.8z M97.9,12.9v-0.3c0.2-0.1,0.5-0.2,0.7-0.4c0.2-0.1,0.3-0.4,0.3-0.6V5.6l-1.2-0.5V4.7
				c0.4-0.1,0.8-0.2,1.2-0.3c0.3,0,0.7-0.1,1-0.1h0.4v1.3l0.5-0.6c0.2-0.2,0.5-0.4,0.8-0.6c0.3-0.1,0.5-0.2,0.8-0.2
				c0.3,0,0.5,0,0.7,0.2c0.2,0.1,0.2,0.4,0.2,0.6c0,0.2,0,0.4-0.1,0.5c0,0.2-0.1,0.4-0.2,0.5c-0.2-0.1-0.3-0.2-0.5-0.3
				c-0.2-0.1-0.4-0.1-0.6-0.1c-0.3,0-0.6,0.1-0.8,0.2c-0.3,0.1-0.5,0.3-0.8,0.6v5.7l1.3,0.3v0.3c-0.3,0.1-0.7,0.2-1,0.2
				c-0.4,0.1-0.9,0.1-1.3,0.1h-0.8C98.4,13.1,98.1,13,97.9,12.9z M104.5,12.9v-0.3c0.2-0.1,0.5-0.2,0.7-0.4c0.2-0.1,0.3-0.4,0.3-0.6
				V5.6l-1.2-0.5V4.7c0.7-0.2,1.4-0.3,2.1-0.3h0.6l-0.1,1v6.8l1,0.3v0.3c-0.3,0.1-0.6,0.1-0.9,0.2c-0.4,0.1-0.8,0.1-1.2,0.1h-0.7
				C104.9,13,104.7,13,104.5,12.9z M106.2,2.7c-0.3,0-0.5-0.1-0.7-0.3c-0.2-0.2-0.3-0.5-0.3-0.7c0-0.3,0.1-0.5,0.3-0.7
				c0.2-0.2,0.5-0.3,0.8-0.3c0.2,0,0.5,0.1,0.7,0.3c0.2,0.2,0.3,0.4,0.3,0.7c0,0.3-0.1,0.6-0.3,0.8C106.7,2.6,106.5,2.7,106.2,2.7z
				 M109.4,12.9v-0.3c0.2-0.1,0.5-0.2,0.7-0.4c0.2-0.1,0.3-0.4,0.3-0.6V5.6l-1.2-0.5V4.7c0.4-0.1,0.8-0.2,1.2-0.3
				c0.3,0,0.7-0.1,1-0.1h0.4v1c0.3-0.3,0.7-0.6,1.2-0.7c0.5-0.2,1-0.3,1.5-0.3c0.7,0,1.3,0.2,1.8,0.7c0.5,0.6,0.8,1.3,0.7,2.1v5
				l0.9,0.3v0.3c-0.3,0.1-0.6,0.2-0.9,0.2c-0.3,0.1-0.7,0.1-1.1,0.1h-0.6c-0.2,0-0.4-0.1-0.6-0.1v-0.3c0.2-0.1,0.4-0.2,0.5-0.4
				c0.1-0.2,0.2-0.5,0.2-0.8V8c0.1-0.7-0.1-1.3-0.5-1.9c-0.3-0.4-0.8-0.6-1.3-0.6c-0.4,0-0.7,0.1-1.1,0.2c-0.3,0.1-0.6,0.2-0.8,0.4
				v6.1l1,0.3v0.3c-0.3,0.1-0.6,0.2-0.9,0.2c-0.4,0.1-0.8,0.1-1.2,0.1H110C109.8,13.1,109.6,13,109.4,12.9z M119.4,11.9
				c0-0.4,0.1-0.7,0.4-1c0.2-0.3,0.5-0.5,0.9-0.6c-0.5-0.2-0.8-0.5-1.1-0.9c-0.3-0.5-0.5-1-0.5-1.6c0-1,0.4-1.9,1.1-2.5
				c0.7-0.7,1.6-1,2.5-1c0.4,0,0.8,0.1,1.1,0.2c0.3,0.1,0.6,0.2,0.8,0.4c0.2-0.2,0.4-0.3,0.7-0.4c0.3-0.1,0.6-0.2,0.9-0.2
				c0.1,0,0.3,0,0.4,0l0.3,0.1l-0.1,1.2c-0.3-0.1-0.6-0.1-0.9-0.1c-0.3,0-0.7-0.1-1-0.1c0.3,0.2,0.6,0.5,0.7,0.9
				c0.2,0.3,0.3,0.7,0.3,1.1c0,1-0.4,1.9-1.1,2.5c-0.7,0.6-1.6,1-2.6,1c-0.2,0-0.4,0-0.6-0.1c-0.2,0-0.4-0.1-0.5-0.1
				c-0.2,0.1-0.3,0.2-0.4,0.4c-0.1,0.1-0.2,0.3-0.2,0.5c0,0.2,0.1,0.5,0.3,0.6c0.3,0.2,0.5,0.2,0.8,0.2h2.5c0.6-0.1,1.2,0.1,1.8,0.5
				c0.4,0.4,0.6,0.9,0.6,1.5c0,0.9-0.5,1.7-1.3,2.2c-0.9,0.6-2,1-3.1,0.9c-0.9,0.1-1.8-0.2-2.6-0.6c-0.5-0.3-0.9-0.9-0.9-1.5
				c0-0.5,0.2-0.9,0.5-1.3c0.3-0.4,0.8-0.6,1.2-0.7c-0.3-0.1-0.6-0.3-0.8-0.5C119.5,12.6,119.4,12.2,119.4,11.9L119.4,11.9z
				 M120.1,15c0,0.4,0.2,0.8,0.6,1c0.5,0.3,1.1,0.4,1.7,0.4c0.7,0,1.4-0.2,2.1-0.5c0.4-0.2,0.7-0.7,0.8-1.2c0-0.3-0.1-0.6-0.3-0.8
				c-0.3-0.2-0.6-0.3-1-0.3H121c-0.3,0.1-0.5,0.3-0.7,0.6C120.2,14.5,120.1,14.7,120.1,15L120.1,15z M122.3,9.9c0.5,0,1-0.2,1.4-0.6
				c0.4-0.5,0.6-1.2,0.6-1.9c0-0.6-0.1-1.2-0.5-1.7c-0.3-0.3-0.8-0.5-1.3-0.6c-0.5,0-1,0.3-1.3,0.7c-0.4,0.5-0.6,1.2-0.6,1.8
				c0,0.6,0.1,1.2,0.5,1.7C121.4,9.7,121.9,9.9,122.3,9.9z M131.1,7.5c-0.1-1.7,0.5-3.3,1.7-4.5c1-1.1,2.3-1.7,3.8-1.7
				c1.3,0,2.5,0.5,3.4,1.5c1,1.1,1.5,2.5,1.4,4c0.1,1.8-0.5,3.5-1.6,4.8c-1,1.1-2.3,1.7-3.8,1.7c-1.3,0-2.5-0.5-3.4-1.5
				C131.5,10.6,131,9.1,131.1,7.5L131.1,7.5z M136.1,12.1c0.9,0,1.8-0.5,2.4-1.2c0.8-1.1,1.2-2.5,1.1-3.9c0.1-1.2-0.3-2.5-1-3.5
				c-0.5-0.7-1.3-1.1-2.2-1.1c-0.9,0.1-1.8,0.5-2.3,1.3c-0.8,1-1.2,2.3-1.1,3.6c-0.1,1.3,0.3,2.5,1,3.6
				C134.4,11.6,135.2,12,136.1,12.1L136.1,12.1z M142.9,12.9v-0.3c0.2-0.1,0.5-0.2,0.6-0.4c0.2-0.1,0.3-0.4,0.3-0.6V5.6l-1.2-0.5
				V4.7c0.4-0.1,0.8-0.2,1.2-0.3c0.3,0,0.7-0.1,1-0.1h0.4v1c0.3-0.3,0.7-0.6,1.2-0.7c0.5-0.2,1-0.3,1.5-0.3c0.7,0,1.3,0.2,1.8,0.7
				c0.5,0.6,0.8,1.3,0.7,2.1v5l0.9,0.3v0.3c-0.3,0.1-0.6,0.2-0.8,0.2c-0.3,0.1-0.7,0.1-1.1,0.1H149c-0.2,0-0.4-0.1-0.6-0.1v-0.3
				c0.2-0.1,0.4-0.2,0.5-0.4c0.1-0.2,0.2-0.5,0.2-0.8V8c0.1-0.7-0.1-1.3-0.5-1.9c-0.3-0.4-0.8-0.6-1.3-0.6c-0.4,0-0.7,0.1-1.1,0.2
				c-0.3,0.1-0.6,0.2-0.8,0.4v6.1l1,0.3v0.3c-0.3,0.1-0.6,0.2-0.9,0.2c-0.4,0.1-0.8,0.1-1.1,0.1h-0.7
				C143.4,13.1,143.1,13,142.9,12.9L142.9,12.9z M152.5,9.3c-0.1-1.4,0.4-2.7,1.3-3.7c0.8-0.8,1.9-1.3,3-1.3c0.2,0,0.5,0,0.7,0
				c0.2,0,0.4,0,0.6,0.1V1.2l-1.2-0.5V0.3c0.4-0.1,0.8-0.2,1.2-0.3c0.3,0,0.7-0.1,1-0.1h0.6l-0.1,1v10.3c0.1,0.2,0.2,0.4,0.3,0.5
				c0.1,0.2,0.3,0.4,0.4,0.5c-0.2,0.2-0.4,0.3-0.6,0.4c-0.2,0.2-0.4,0.3-0.7,0.4c-0.2-0.1-0.4-0.3-0.5-0.5c-0.1-0.2-0.3-0.4-0.4-0.6
				c-0.3,0.3-0.7,0.6-1.1,0.7c-0.4,0.2-0.8,0.3-1.2,0.3c-0.9,0-1.7-0.4-2.3-1.1C152.8,11.3,152.5,10.3,152.5,9.3L152.5,9.3z
				 M156.3,12c0.3,0,0.7-0.1,1-0.2c0.3-0.1,0.6-0.2,0.8-0.4v-6c-0.2-0.1-0.4-0.1-0.6-0.1c-0.2,0-0.5-0.1-0.7-0.1
				c-0.7,0-1.5,0.3-1.9,0.9C154.3,7,154,8,154.1,9c-0.1,0.8,0.2,1.6,0.6,2.2C155.1,11.7,155.7,12,156.3,12z M161.6,9.1
				c-0.1-1.3,0.3-2.6,1.2-3.6c0.6-0.8,1.6-1.2,2.6-1.3c0.9,0,1.7,0.3,2.3,0.9c0.6,0.7,0.9,1.6,0.8,2.5v1.1h-5.3
				c-0.1,0.9,0.2,1.7,0.8,2.3c0.5,0.5,1.2,0.9,1.9,0.8c0.5,0,0.9-0.1,1.4-0.2c0.4-0.1,0.8-0.3,1.2-0.6c0,0.1,0,0.1,0,0.2
				c0,0.1,0,0.2,0,0.3c0,0.4-0.3,0.8-0.8,1.1c-0.7,0.3-1.5,0.5-2.3,0.5c-1,0-1.9-0.4-2.6-1.1C161.9,11.3,161.5,10.2,161.6,9.1
				L161.6,9.1z M163.2,7.8h3.8c0.1-0.7-0.1-1.4-0.5-2c-0.3-0.4-0.8-0.7-1.3-0.7c-0.6,0-1.1,0.3-1.4,0.8
				C163.4,6.5,163.1,7.1,163.2,7.8L163.2,7.8z M169.8,12.9v-0.3c0.2-0.1,0.5-0.2,0.6-0.4c0.2-0.1,0.3-0.4,0.3-0.6V5.6l-1.2-0.5V4.7
				c0.4-0.1,0.8-0.2,1.2-0.3c0.3,0,0.7-0.1,1-0.1h0.4v1.3l0.5-0.6c0.2-0.2,0.5-0.4,0.8-0.6c0.3-0.1,0.5-0.2,0.8-0.2
				c0.3,0,0.5,0,0.7,0.2c0.2,0.1,0.2,0.4,0.2,0.6c0,0.2,0,0.4-0.1,0.5c0,0.2-0.1,0.4-0.2,0.5c-0.2-0.1-0.3-0.2-0.5-0.3
				c-0.2-0.1-0.4-0.1-0.6-0.1c-0.3,0-0.6,0.1-0.8,0.2c-0.3,0.1-0.6,0.3-0.8,0.6v5.7l1.3,0.3v0.3c-0.3,0.1-0.7,0.2-1,0.2
				c-0.4,0.1-0.9,0.1-1.3,0.1h-0.8C170.2,13.1,170,13,169.8,12.9L169.8,12.9z M179.1,13.2l-2.7-7.8l-0.8-0.5V4.4h3.5v0.4l-1,0.4
				l1.6,5.8l1.8-5.7l-1-0.5V4.4h3.1v0.4l-0.5,0.4l1.6,5.8l1.9-5.7l-1-0.5V4.4h2.8v0.4l-0.5,0.4l-3,8h-0.8l-2-6.6l-2.1,6.6
				L179.1,13.2z M189.4,12.9v-0.3c0.2-0.1,0.5-0.2,0.6-0.4c0.2-0.1,0.3-0.4,0.3-0.6V5.6l-1.1-0.5V4.7c0.7-0.2,1.4-0.3,2.1-0.3h0.6
				l-0.1,1v6.8l1,0.3v0.3c-0.3,0.1-0.6,0.2-0.9,0.2c-0.4,0.1-0.8,0.1-1.2,0.1h-0.7C189.8,13.1,189.6,13,189.4,12.9L189.4,12.9z
				 M191.1,2.7c-0.3,0-0.5-0.1-0.7-0.3c-0.2-0.2-0.3-0.5-0.3-0.7c0-0.3,0.1-0.5,0.3-0.7c0.2-0.2,0.5-0.3,0.8-0.3
				c0.2,0,0.5,0.1,0.7,0.3c0.2,0.2,0.3,0.4,0.3,0.7c0,0.3-0.1,0.6-0.3,0.8C191.6,2.6,191.4,2.7,191.1,2.7L191.1,2.7z M194.9,13.9
				V5.6l-1.1-0.5V4.7c0.7-0.2,1.4-0.3,2.2-0.3h0.6l-0.1,1v8.1c0.1,1-0.1,2.1-0.6,3c-0.3,0.5-0.9,0.8-1.4,0.8c-0.2,0-0.4,0-0.6-0.1
				c-0.2-0.1-0.3-0.2-0.4-0.3v-0.3c0.5,0,0.9-0.3,1.1-0.7C194.7,15.3,194.9,14.6,194.9,13.9L194.9,13.9z M195.6,2.7
				c-0.3,0-0.5-0.1-0.7-0.3c-0.2-0.2-0.3-0.5-0.3-0.7c0-0.3,0.1-0.5,0.3-0.7c0.2-0.2,0.5-0.3,0.8-0.3c0.2,0,0.5,0.1,0.7,0.3
				c0.2,0.2,0.3,0.4,0.3,0.7c0,0.3-0.1,0.6-0.3,0.8C196.2,2.6,195.9,2.7,195.6,2.7L195.6,2.7z M198.3,11.7c0-0.1,0-0.3,0-0.4
				c0-0.1,0.1-0.2,0.1-0.4c0.4,0.3,0.8,0.6,1.2,0.8c0.4,0.2,0.9,0.3,1.3,0.3c0.4,0,0.8-0.1,1.1-0.3c0.2-0.2,0.4-0.5,0.4-0.8
				c0-0.3-0.1-0.6-0.3-0.8c-0.3-0.3-0.7-0.5-1.2-0.7l-0.9-0.4c-0.5-0.2-0.9-0.5-1.2-0.9c-0.3-0.4-0.4-0.9-0.4-1.3
				c0-0.7,0.3-1.4,0.9-1.9c0.6-0.5,1.4-0.8,2.3-0.8c0.5,0,1.1,0.1,1.6,0.3c0.3,0.2,0.5,0.5,0.5,0.8c0,0.1,0,0.3,0,0.4l-0.1,0.4
				c-0.3-0.2-0.6-0.4-1-0.5c-0.3-0.1-0.7-0.2-1.1-0.2c-0.5,0-0.9,0.1-1.3,0.3c-0.3,0.2-0.4,0.5-0.4,0.8c0,0.3,0.1,0.6,0.3,0.8
				c0.3,0.3,0.7,0.5,1.1,0.6l1,0.4c0.5,0.2,1,0.5,1.4,0.9c0.3,0.4,0.4,0.8,0.4,1.3c0,0.7-0.4,1.4-0.9,1.8c-0.7,0.6-1.5,0.9-2.4,0.8
				c-0.6,0.1-1.2-0.1-1.7-0.4C198.5,12.6,198.3,12.2,198.3,11.7L198.3,11.7z M0,33.5v-0.3c0.1,0,0.3-0.1,0.4-0.2
				c0.1-0.1,0.2-0.3,0.2-0.4l2.3-9.7l-1-0.2v-0.4c0.3-0.1,0.6-0.1,0.9-0.1c0.3,0,0.7-0.1,1-0.1h0.6L6,30.6h0L9,22h1.3
				c0.3,0,0.6,0.1,0.9,0.1v0.4l-0.8,0.2l0.4,10l1,0.3v0.3c-0.2,0.1-0.5,0.2-0.7,0.2c-0.2,0.1-0.5,0.1-0.7,0.1c-0.3,0-0.6,0-0.9,0
				c-0.2,0-0.5-0.1-0.7-0.1v-0.3C8.8,33.1,8.9,33,9,32.9c0.1-0.2,0.2-0.4,0.1-0.6l-0.1-8h0l-3.2,9.5H5.2l-1.8-9.5l-1.8,8.5l1,0.3
				v0.3c-0.2,0.1-0.5,0.2-0.7,0.2c-0.3,0-0.5,0.1-0.8,0.1c-0.2,0-0.4,0-0.6-0.1C0.4,33.6,0.2,33.6,0,33.5z M12.9,32.9
				c0-0.4,0-0.7,0.1-1.1c0.1-0.5,0.1-0.9,0.2-1.3l0.6-3.7l0.1-1.1l-1.1-0.3v-0.3c0.3-0.1,0.6-0.2,0.9-0.2c0.3,0,0.6-0.1,0.9-0.1H15
				c0.1,0,0.3,0,0.4,0.1l-0.8,5.3c0,0.3-0.1,0.6-0.1,1s0,0.7,0,0.9c0,0.2,0,0.5,0.2,0.7c0.1,0.2,0.3,0.3,0.6,0.4v0.3
				c-0.2,0.1-0.4,0.1-0.6,0.2c-0.2,0-0.5,0.1-0.7,0.1c-0.2,0-0.5-0.1-0.6-0.2C13,33.3,12.9,33.1,12.9,32.9z M14.9,23.1
				c-0.2,0-0.4-0.1-0.6-0.2c-0.2-0.2-0.3-0.4-0.3-0.6c0-0.3,0.1-0.6,0.3-0.8c0.2-0.2,0.4-0.3,0.7-0.3c0.2,0,0.4,0.1,0.6,0.2
				c0.2,0.2,0.3,0.4,0.3,0.6c0,0.3-0.1,0.6-0.3,0.8C15.4,22.9,15.1,23,14.9,23.1z M16.8,33.6l0.9-7.8l-1.1-0.3v-0.3
				c0.3-0.1,0.6-0.2,0.9-0.2c0.3-0.1,0.6-0.1,0.9-0.1h0.4c0.1,0,0.3,0,0.4,0.1l-0.6,2.8c0.3-0.8,0.8-1.5,1.5-2.1
				c0.5-0.5,1.1-0.8,1.8-0.8c0.4,0,0.7,0.1,1,0.4c0.3,0.3,0.4,0.8,0.4,1.2c0,0.4,0,0.7-0.1,1.1c-0.1,0.4-0.1,0.8-0.2,1.2l-0.3,1.9
				c0,0.2-0.1,0.5-0.1,0.8c0,0.2-0.1,0.5-0.1,0.7c0,0.2,0.1,0.5,0.2,0.7c0.2,0.2,0.4,0.2,0.6,0.3v0.3c-0.2,0.1-0.4,0.2-0.7,0.3
				c-0.3,0.1-0.5,0.1-0.8,0.1c-0.2,0-0.5-0.1-0.6-0.2c-0.2-0.2-0.3-0.4-0.2-0.6c0-0.3,0-0.6,0.1-0.9c0-0.4,0.1-0.7,0.1-1l0.3-2.1
				c0-0.3,0.1-0.6,0.1-0.9c0-0.3,0.1-0.6,0-0.9c0-0.3,0-0.6-0.2-0.9C21.4,26.1,21.2,26,21,26c-0.5,0-1,0.4-1.6,1.3
				c-0.6,1-0.9,2.1-0.9,3.2l-0.1,3L16.8,33.6z M24.9,32.9c0-0.4,0-0.7,0.1-1.1c0.1-0.5,0.1-0.9,0.2-1.3l0.6-3.7l0.1-1.1l-1.1-0.3
				v-0.3c0.3-0.1,0.6-0.2,0.9-0.2c0.3,0,0.6-0.1,0.9-0.1H27c0.1,0,0.3,0,0.4,0.1l-0.8,5.3c0,0.3-0.1,0.6-0.1,1s0,0.7,0,0.9
				c0,0.2,0,0.5,0.2,0.7c0.1,0.2,0.3,0.3,0.5,0.4v0.3c-0.2,0.1-0.4,0.1-0.6,0.2c-0.2,0-0.5,0.1-0.7,0.1c-0.2,0-0.5-0.1-0.6-0.2
				C25,33.3,24.9,33.1,24.9,32.9z M26.8,23.1c-0.2,0-0.4-0.1-0.6-0.2c-0.2-0.2-0.3-0.4-0.2-0.6c0-0.3,0.1-0.6,0.3-0.8
				c0.2-0.2,0.4-0.3,0.7-0.3c0.2,0,0.4,0.1,0.6,0.2c0.2,0.2,0.3,0.4,0.2,0.6c0,0.3-0.1,0.6-0.3,0.8C27.4,22.9,27.1,23,26.8,23.1z
				 M28.1,32.8c0-0.1,0-0.3,0.1-0.4c0-0.1,0.1-0.2,0.2-0.3c0.2,0.2,0.5,0.4,0.8,0.6c0.3,0.1,0.6,0.2,0.9,0.2c0.4,0,0.8-0.1,1.1-0.3
				c0.3-0.2,0.5-0.5,0.5-0.9c0-0.3-0.1-0.6-0.2-0.8c-0.3-0.4-0.5-0.7-0.9-1L30,29.2c-0.3-0.3-0.6-0.6-0.8-1c-0.2-0.3-0.2-0.7-0.2-1
				c0-0.6,0.3-1.2,0.8-1.6c0.5-0.5,1.3-0.8,2-0.8c0.5,0,1,0.1,1.5,0.3c0.3,0.1,0.5,0.4,0.5,0.7c0,0.2,0,0.3-0.1,0.5
				c-0.1,0.2-0.1,0.3-0.2,0.4c-0.3-0.3-0.6-0.5-1-0.7c-0.3-0.1-0.7-0.2-1-0.2c-0.3,0-0.6,0.1-0.9,0.3c-0.2,0.2-0.3,0.4-0.3,0.7
				c0,0.3,0.1,0.5,0.2,0.7c0.3,0.3,0.6,0.6,0.9,0.9L32,29c0.4,0.3,0.7,0.6,0.9,1c0.2,0.3,0.3,0.7,0.3,1c0,0.7-0.4,1.4-1,1.9
				c-0.7,0.5-1.5,0.8-2.4,0.8c-0.4,0-0.9-0.1-1.2-0.3C28.3,33.3,28.2,33,28.1,32.8z M34.9,31.6c0-0.7,0.1-1.4,0.2-2.1
				c0.1-0.8,0.2-1.6,0.4-2.3l0.2-1.2h-1v-0.2c0.3-0.4,0.7-0.8,1.1-1.2c0.4-0.4,0.9-0.7,1.4-1h0.3l-0.3,1.5h1.2c0.2,0,0.5,0,0.7-0.1
				c0,0.3-0.1,0.6-0.4,0.9c-0.4,0.2-0.8,0.3-1.2,0.3H37L36.7,28c-0.1,0.4-0.2,1-0.2,1.6c-0.1,0.5-0.2,1-0.2,1.5
				c0,0.5,0.1,0.9,0.4,1.3c0.3,0.3,0.6,0.4,1,0.4c0.2,0,0.5,0,0.7-0.1v0.3c-0.1,0.3-0.3,0.5-0.6,0.6c-0.3,0.2-0.7,0.3-1.1,0.3
				c-0.5,0-1-0.2-1.3-0.6C35.1,32.7,34.9,32.1,34.9,31.6z M39.3,30.7c-0.1-1.6,0.3-3.2,1.2-4.5c0.6-0.8,1.5-1.4,2.5-1.5
				c0.5,0,1,0.1,1.4,0.5c0.4,0.4,0.5,0.9,0.5,1.4c0,1-0.5,2-1.3,2.5c-0.9,0.6-1.9,0.9-3,0.9c-0.1,0.7,0.1,1.5,0.4,2.2
				c0.3,0.4,0.7,0.6,1.2,0.5c0.4,0,0.7-0.1,1.1-0.3c0.3-0.1,0.7-0.3,0.9-0.6c0,0.1,0.1,0.1,0.1,0.2c0,0.1,0.1,0.2,0.1,0.3
				c0,0.5-0.3,0.9-0.8,1.1c-0.6,0.3-1.2,0.5-1.8,0.5c-0.7,0-1.4-0.2-1.9-0.8C39.5,32.4,39.3,31.5,39.3,30.7z M40.8,29.2
				c0.7,0,1.4-0.2,2-0.6c0.5-0.4,0.8-1,0.8-1.6c0-0.3-0.1-0.6-0.2-0.9c-0.2-0.2-0.4-0.3-0.6-0.3c-0.4,0-0.8,0.3-1.3,1
				C41,27.5,40.8,28.3,40.8,29.2z M46.2,33.6l0.9-7.8L46,25.5v-0.3c0.3-0.1,0.6-0.2,0.8-0.2c0.3,0,0.6-0.1,0.9-0.1h0.4
				c0.1,0,0.3,0,0.4,0.1L48,27.5l0.9-1.5c0.2-0.3,0.4-0.6,0.7-0.9c0.2-0.2,0.5-0.3,0.8-0.3c0.2,0,0.3,0.1,0.4,0.2
				c0.1,0.1,0.2,0.3,0.2,0.5c0,0.2,0,0.3,0,0.5c0,0.2-0.1,0.3-0.1,0.5c-0.1,0-0.2,0-0.3,0c-0.1,0-0.2,0-0.3,0
				c-0.7,0.1-1.2,0.4-1.6,1c-0.6,1.1-0.9,2.3-0.9,3.5l-0.1,2.6L46.2,33.6z M51.9,32.9c0-0.4,0-0.7,0.1-1.1c0-0.5,0.1-0.9,0.2-1.3
				l0.6-3.7l0.1-1.1l-1.1-0.3v-0.3c0.3-0.1,0.6-0.2,0.9-0.2c0.3,0,0.6-0.1,0.9-0.1h0.4c0.1,0,0.3,0,0.4,0.1l-0.8,5.3
				c0,0.3-0.1,0.6-0.1,1s0,0.7,0,0.9c0,0.2,0,0.5,0.2,0.7c0.1,0.2,0.3,0.3,0.5,0.4v0.3c-0.2,0.1-0.4,0.1-0.6,0.2
				c-0.2,0-0.5,0.1-0.7,0.1c-0.2,0-0.5-0.1-0.7-0.2C52,33.3,51.9,33.1,51.9,32.9z M53.9,23.1c-0.2,0-0.4-0.1-0.6-0.2
				c-0.2-0.2-0.3-0.4-0.3-0.6c0-0.3,0.1-0.6,0.3-0.8c0.2-0.2,0.4-0.3,0.7-0.3c0.2,0,0.4,0.1,0.6,0.2c0.2,0.2,0.3,0.4,0.2,0.6
				c0,0.3-0.1,0.6-0.3,0.8C54.4,22.9,54.1,23.1,53.9,23.1L53.9,23.1z M55.5,30.7c-0.1-1.6,0.3-3.2,1.2-4.5c0.6-0.8,1.5-1.4,2.5-1.5
				c0.5,0,1,0.1,1.4,0.5c0.4,0.4,0.5,0.9,0.5,1.4c0,1-0.5,2-1.3,2.5c-0.9,0.6-1.9,0.9-3,0.9c-0.1,0.7,0.1,1.5,0.4,2.2
				c0.3,0.4,0.7,0.6,1.2,0.5c0.4,0,0.7-0.1,1.1-0.3c0.3-0.1,0.7-0.3,0.9-0.6c0.1,0,0.1,0.1,0.1,0.2c0,0.1,0.1,0.2,0.1,0.3
				c0,0.5-0.3,0.9-0.8,1.1c-0.6,0.3-1.2,0.5-1.8,0.5c-0.7,0-1.4-0.3-1.8-0.8C55.6,32.4,55.4,31.5,55.5,30.7z M57,29.2
				c0.7,0,1.4-0.2,2-0.6c0.5-0.4,0.8-1,0.8-1.6c0-0.3,0-0.6-0.2-0.9c-0.2-0.2-0.4-0.3-0.6-0.3c-0.4,0-0.8,0.3-1.3,1
				C57.2,27.5,57,28.3,57,29.2z M66,33.9l-0.7-8.1l-0.8-0.3v-0.4c0.2-0.1,0.5-0.2,0.8-0.2c0.2,0,0.5-0.1,0.7-0.1h0.4
				c0.1,0,0.3,0,0.4,0.1l0.4,7.4c0.7-0.9,1.2-1.8,1.6-2.9c0.4-1,0.6-2,0.7-3.1c0-0.2-0.1-0.4-0.2-0.6c-0.1-0.2-0.3-0.3-0.5-0.4V25
				c0.2-0.1,0.3-0.1,0.5-0.2c0.2,0,0.4-0.1,0.6-0.1c0.3,0,0.5,0.1,0.7,0.3c0.2,0.2,0.3,0.5,0.3,0.8c-0.1,1.3-0.5,2.6-1.1,3.7
				c-0.6,1.3-1.4,2.6-2.4,3.6c-0.2,0.1-0.3,0.3-0.5,0.4c-0.2,0.1-0.3,0.2-0.5,0.3L66,33.9z M73,33.8c-0.5-0.1-0.9-0.4-1.1-0.8
				c-0.4-0.7-0.6-1.5-0.5-2.4c-0.1-1.6,0.4-3.1,1.4-4.3c0.8-1,2-1.5,3.3-1.5c0.3,0,0.7,0,1,0.1c0.3,0,0.7,0.1,1,0.2l-0.6,3.1
				c-0.2,0.6-0.3,1.2-0.4,1.8c-0.1,0.7-0.1,1.2-0.1,1.6c0,0.4,0,0.8,0.2,1.1c0.2,0.2,0.4,0.3,0.7,0.3v0.4c-0.2,0.1-0.5,0.2-0.8,0.2
				c-0.3,0-0.6,0.1-0.8,0.1c-0.1,0-0.3,0-0.4,0l-0.4-0.1l0.4-2.7c-0.3,0.8-0.7,1.5-1.3,2.1C74.1,33.5,73.6,33.8,73,33.8z M73.6,32.6
				c0.4,0,0.8-0.3,1.3-0.9c0.5-0.8,0.9-1.8,1-2.8l0.5-3c-0.1,0-0.3-0.1-0.5-0.1h-0.5c-0.8,0-1.5,0.5-1.9,1.2c-0.6,1-0.9,2.2-0.8,3.4
				c0,0.6,0.1,1.1,0.3,1.7C73.2,32.4,73.5,32.6,73.6,32.6L73.6,32.6z M79.3,33.6l0.9-7.8l-1.1-0.3v-0.3c0.3-0.1,0.6-0.2,0.8-0.2
				c0.3,0,0.6-0.1,0.9-0.1c0.1,0,0.2,0,0.4,0c0.1,0,0.3,0,0.4,0.1l-0.6,2.8c0.3-0.8,0.8-1.5,1.5-2.1c0.5-0.5,1.1-0.8,1.8-0.8
				c0.4,0,0.7,0.1,1,0.4c0.3,0.3,0.5,0.8,0.4,1.2c0,0.4,0,0.7-0.1,1.1c-0.1,0.4-0.1,0.8-0.2,1.2l-0.3,1.9c0,0.2,0,0.5-0.1,0.8
				s0,0.5,0,0.7c0,0.2,0.1,0.5,0.2,0.7c0.2,0.1,0.4,0.2,0.6,0.3v0.3c-0.2,0.1-0.4,0.2-0.7,0.3c-0.3,0.1-0.5,0.1-0.8,0.1
				c-0.2,0-0.5-0.1-0.6-0.2c-0.2-0.2-0.3-0.4-0.2-0.6c0-0.2,0-0.5,0.1-0.9s0.1-0.7,0.2-1l0.3-2.1c0-0.3,0.1-0.6,0.1-0.9
				s0.1-0.6,0.1-0.9c0-0.3-0.1-0.6-0.2-0.9c-0.2-0.2-0.4-0.2-0.6-0.2c-0.5,0-1,0.4-1.6,1.3c-0.6,1-0.9,2.1-0.9,3.2l-0.1,3L79.3,33.6
				z M90.3,29.7c-0.1-2,0.4-4,1.6-5.7c0.8-1.2,2.1-1.9,3.5-2c1,0,1.9,0.3,2.5,1c0.7,0.8,1.1,1.9,1,3c0,2.7-0.6,4.7-1.7,6
				c-0.9,1.2-2.2,1.9-3.7,2c-0.9,0-1.7-0.4-2.3-1.1C90.5,32,90.2,30.9,90.3,29.7z M93.9,32.8c1-0.1,1.8-0.7,2.3-1.5
				c0.8-1,1.2-2.7,1.2-5c0.1-0.9-0.2-1.7-0.6-2.5c-0.4-0.5-0.9-0.8-1.6-0.8c-0.8,0-1.6,0.5-2.3,1.7c-0.8,1.5-1.1,3.1-1,4.7
				c-0.1,0.9,0.1,1.8,0.6,2.6C92.8,32.5,93.3,32.8,93.9,32.8z M100.3,33.6l0.9-7.8l-1.1-0.3v-0.3c0.3-0.1,0.6-0.2,0.9-0.2
				c0.3-0.1,0.6-0.1,0.9-0.1h0.4c0.1,0,0.3,0,0.4,0.1l-0.6,2.8c0.3-0.8,0.8-1.5,1.5-2.1c0.5-0.5,1.1-0.8,1.8-0.8
				c0.4,0,0.7,0.1,1,0.4c0.3,0.3,0.4,0.8,0.4,1.2c0,0.4,0,0.7-0.1,1.1c-0.1,0.4-0.1,0.8-0.2,1.2l-0.3,1.9c0,0.2-0.1,0.5-0.1,0.8
				c0,0.2-0.1,0.5-0.1,0.7c0,0.2,0.1,0.5,0.2,0.7c0.2,0.2,0.4,0.2,0.6,0.3v0.3c-0.2,0.1-0.4,0.2-0.7,0.3c-0.3,0.1-0.5,0.1-0.8,0.1
				c-0.2,0-0.5-0.1-0.7-0.2c-0.2-0.2-0.2-0.4-0.2-0.6c0-0.3,0-0.6,0.1-0.9c0-0.4,0.1-0.7,0.1-1l0.3-2.1c0-0.3,0.1-0.6,0.1-0.9
				c0-0.3,0.1-0.6,0.1-0.9c0-0.3-0.1-0.6-0.2-0.9c-0.1-0.2-0.3-0.2-0.6-0.2c-0.5,0-1,0.4-1.6,1.3c-0.6,1-0.9,2.1-0.9,3.2l-0.1,3
				L100.3,33.6z M109.7,33.8c-0.5,0-0.9-0.4-1.1-0.8c-0.4-0.7-0.6-1.5-0.5-2.4c-0.1-1.5,0.4-3.1,1.3-4.3c0.8-1,1.9-1.6,3.2-1.6h0.7
				l0.5-3.3l-1.2-0.3v-0.3c0.3-0.1,0.6-0.2,0.9-0.2c0.3,0,0.7-0.1,1-0.1c0.1,0,0.3,0,0.4,0c0.1,0,0.3,0,0.4,0.1l-1.3,7.5
				c-0.1,0.4-0.1,1-0.3,1.7c-0.1,0.6-0.1,1.1-0.2,1.7c0,0.4,0,0.8,0.2,1.1c0.2,0.2,0.4,0.3,0.7,0.3v0.4c-0.3,0.1-0.5,0.1-0.8,0.2
				c-0.3,0.1-0.5,0.1-0.8,0.1c-0.1,0-0.3,0-0.4,0l-0.3-0.1l0.4-2.7c-0.3,0.8-0.7,1.5-1.3,2.1C110.9,33.5,110.3,33.8,109.7,33.8
				L109.7,33.8z M110.4,32.6c0.4,0,0.8-0.3,1.2-0.9c0.6-0.8,0.9-1.8,1-2.8l0.5-3c-0.1,0-0.3-0.1-0.4-0.1c-0.1,0-0.3,0-0.4,0
				c-0.8,0-1.5,0.4-1.9,1.1c-0.6,1-0.9,2.3-0.8,3.5c0,0.6,0.1,1.1,0.3,1.7C109.9,32.4,110.1,32.6,110.4,32.6z M115.8,30.7
				c-0.1-1.6,0.3-3.2,1.3-4.5c0.6-0.8,1.5-1.4,2.5-1.5c0.5,0,1,0.1,1.4,0.5c0.4,0.4,0.5,0.9,0.5,1.4c0,1-0.5,2-1.3,2.5
				c-0.9,0.6-1.9,0.9-3,0.9c-0.1,0.7,0.1,1.5,0.4,2.2c0.3,0.4,0.7,0.6,1.2,0.5c0.4,0,0.7-0.1,1.1-0.3c0.3-0.1,0.7-0.3,0.9-0.6
				c0,0.1,0.1,0.1,0.1,0.2c0,0.1,0.1,0.2,0.1,0.3c0,0.5-0.3,0.9-0.8,1.1c-0.6,0.3-1.2,0.5-1.8,0.5c-0.7,0-1.4-0.3-1.8-0.8
				C115.9,32.4,115.7,31.5,115.8,30.7z M117.2,29.2c0.7,0,1.4-0.2,2-0.6c0.5-0.4,0.8-1,0.8-1.6c0-0.3,0-0.6-0.2-0.9
				c-0.2-0.2-0.4-0.3-0.6-0.3c-0.4,0-0.8,0.3-1.3,1C117.4,27.5,117.2,28.3,117.2,29.2z M122.6,33.6l0.9-7.8l-1.1-0.3v-0.3
				c0.3-0.1,0.6-0.2,0.9-0.2c0.3,0,0.6-0.1,0.9-0.1h0.4c0.1,0,0.3,0,0.4,0.1l-0.5,2.6l1-1.6c0.2-0.3,0.4-0.6,0.7-0.9
				c0.2-0.2,0.5-0.3,0.8-0.3c0.2,0,0.3,0.1,0.4,0.2c0.1,0.1,0.2,0.3,0.2,0.5c0,0.2,0,0.3,0,0.5c0,0.2-0.1,0.3-0.1,0.5
				c-0.1,0-0.2,0-0.3,0c-0.1,0-0.2,0-0.3,0c-0.7,0.1-1.3,0.4-1.6,1c-0.6,1.1-0.9,2.3-0.8,3.5l-0.2,2.6L122.6,33.6z M129.3,33.9
				l-0.6-8.1l-0.8-0.3v-0.4c0.2-0.1,0.5-0.2,0.7-0.2c0.2,0,0.5-0.1,0.7-0.1c0.1,0,0.2,0,0.4,0c0.1,0,0.3,0,0.4,0.1l0.3,7.3
				c0.7-0.9,1.2-1.9,1.6-3c0.5-1.3,0.8-2.7,0.8-4.1c0.1-0.1,0.3-0.1,0.4-0.1c0.1,0,0.3,0,0.4,0c0.2,0,0.5,0,0.7,0.2
				c0.2,0.1,0.2,0.4,0.2,0.6l0.3,6.5c0.6-0.8,1.2-1.8,1.5-2.8c0.4-0.9,0.6-1.8,0.6-2.8c0-0.2,0-0.5-0.1-0.7
				c-0.1-0.2-0.3-0.4-0.5-0.5V25c0.2-0.1,0.3-0.1,0.5-0.2c0.2,0,0.4-0.1,0.6-0.1c0.3,0,0.5,0.1,0.7,0.3c0.2,0.2,0.3,0.5,0.3,0.8
				c-0.1,1.4-0.5,2.7-1.1,3.9c-0.7,1.3-1.5,2.5-2.6,3.6l-0.4,0.3c-0.1,0.1-0.2,0.1-0.3,0.2h-0.3l-0.3-8.8c0,1.6-0.4,3.2-1,4.7
				c-0.4,1.3-1.2,2.5-2.1,3.4l-0.4,0.3c-0.1,0.1-0.2,0.2-0.4,0.3L129.3,33.9z M139.6,32.9c0-0.4,0-0.7,0.1-1.1
				c0.1-0.5,0.1-0.9,0.2-1.3l0.6-3.7l0.1-1.1l-1.1-0.3v-0.3c0.3-0.1,0.6-0.2,0.9-0.2c0.3,0,0.6-0.1,0.9-0.1h0.4c0.1,0,0.3,0,0.4,0.1
				l-0.8,5.3c0,0.3-0.1,0.6-0.1,1s0,0.7,0,0.9c0,0.2,0,0.5,0.2,0.7c0.1,0.2,0.3,0.3,0.6,0.4v0.3c-0.2,0.1-0.4,0.1-0.6,0.2
				c-0.2,0-0.5,0.1-0.7,0.1c-0.2,0-0.5-0.1-0.6-0.2C139.7,33.3,139.6,33.1,139.6,32.9L139.6,32.9z M141.6,23.1
				c-0.2,0-0.4-0.1-0.6-0.2c-0.2-0.2-0.2-0.4-0.2-0.6c0-0.3,0.1-0.6,0.3-0.8c0.2-0.2,0.4-0.3,0.7-0.3c0.2,0,0.4,0.1,0.6,0.2
				c0.2,0.2,0.3,0.4,0.3,0.6c0,0.3-0.1,0.6-0.3,0.8C142.1,22.9,141.8,23,141.6,23.1L141.6,23.1z"/>
			<path d="M143.3,34.7l1-7.8l0.1-1.1l-1.1-0.3v-0.3c0.3-0.1,0.6-0.2,0.9-0.2c0.3,0,0.6-0.1,0.9-0.1c0.1,0,0.3,0,0.4,0
				c0.1,0,0.3,0,0.4,0.1l-1.1,9.7c-0.1,0.9-0.4,1.8-0.9,2.6c-0.4,0.5-1,0.8-1.6,0.8c-0.2,0-0.5,0-0.7-0.1c-0.2-0.1-0.4-0.2-0.5-0.4
				v-0.3c0.6,0,1.1-0.2,1.5-0.6C143,36.1,143.3,35.4,143.3,34.7L143.3,34.7z M145.3,23.1c-0.4,0-0.8-0.3-0.8-0.7c0,0,0-0.1,0-0.1
				c0-0.3,0.1-0.6,0.3-0.8c0.2-0.2,0.4-0.3,0.7-0.3c0.2,0,0.4,0.1,0.6,0.2c0.2,0.2,0.3,0.4,0.3,0.6c0,0.3-0.1,0.6-0.3,0.8
				C145.9,22.9,145.6,23,145.3,23.1L145.3,23.1z M146.4,32.8c0-0.1,0-0.3,0.1-0.4c0-0.1,0.1-0.2,0.2-0.3c0.2,0.2,0.5,0.4,0.8,0.6
				c0.3,0.1,0.6,0.2,0.9,0.2c0.4,0,0.8-0.1,1.1-0.3c0.3-0.2,0.5-0.5,0.4-0.9c0-0.3-0.1-0.6-0.2-0.8c-0.3-0.4-0.5-0.7-0.9-1l-0.6-0.6
				c-0.3-0.3-0.6-0.6-0.8-1c-0.1-0.3-0.2-0.7-0.2-1c0-0.6,0.3-1.2,0.8-1.6c0.5-0.5,1.3-0.8,2-0.8c0.5,0,1,0.1,1.5,0.3
				c0.3,0.1,0.5,0.4,0.5,0.7c0,0.2,0,0.3-0.1,0.5c-0.1,0.2-0.1,0.3-0.2,0.4c-0.3-0.3-0.6-0.5-0.9-0.6c-0.3-0.1-0.7-0.2-1-0.2
				c-0.3,0-0.6,0.1-0.9,0.3c-0.2,0.2-0.3,0.4-0.3,0.7c0,0.3,0.1,0.5,0.2,0.7c0.3,0.3,0.6,0.6,0.9,0.9l0.7,0.6c0.4,0.3,0.7,0.6,0.9,1
				c0.2,0.3,0.3,0.7,0.3,1c0,0.7-0.4,1.4-1,1.9c-0.7,0.5-1.5,0.8-2.4,0.8c-0.4,0-0.9-0.1-1.3-0.3C146.5,33.3,146.4,33.1,146.4,32.8
				L146.4,32.8z M152.9,32.4c0.2-0.2,0.3-0.4,0.6-0.5c0.2-0.1,0.4-0.2,0.6-0.2c0.2,0,0.5,0.1,0.6,0.3c0.2,0.2,0.3,0.5,0.3,0.8
				c0,0.7-0.3,1.4-0.8,2c-0.4,0.5-0.9,1-1.5,1.2l-0.5-0.1c0.4-0.4,0.7-0.8,1-1.3c0.2-0.4,0.3-0.9,0.4-1.3L152.9,32.4z M160.2,29.6
				c0-2.6,0.6-4.5,1.7-5.8c0.9-1.1,2.2-1.8,3.6-1.9c0.4,0,0.8,0,1.2,0.1c0.3,0,0.7,0.1,1,0.3l-0.3,2.3h-0.5l-0.1-0.4
				c0-0.4-0.2-0.7-0.5-1c-0.3-0.2-0.6-0.3-1-0.3c-1,0.1-1.9,0.7-2.3,1.6c-0.9,1.5-1.3,3.2-1.2,4.9c-0.1,0.9,0.2,1.8,0.6,2.6
				c0.3,0.5,0.9,0.8,1.5,0.9c0.5,0,0.9-0.1,1.3-0.3c0.4-0.2,0.7-0.6,0.8-1l0.2-0.5h0.5l-0.3,2.2c-0.4,0.2-0.8,0.3-1.3,0.4
				c-0.5,0.1-1,0.1-1.6,0.1c-0.9,0-1.8-0.3-2.5-1C160.4,31.9,160,30.8,160.2,29.6z M168.3,32.1c0-0.2,0-0.5,0.1-0.7
				c0-0.3,0.1-0.5,0.1-0.7l0.4-2.1c0.1-0.3,0.1-0.7,0.2-1.1c0.1-0.4,0.1-0.7,0.1-1.1c0-0.2-0.1-0.5-0.2-0.7
				c-0.2-0.2-0.4-0.3-0.6-0.3v-0.3c0.2-0.1,0.4-0.2,0.6-0.2c0.3-0.1,0.5-0.1,0.8-0.1c0.2,0,0.5,0.1,0.7,0.2c0.2,0.2,0.2,0.4,0.2,0.6
				c0,0.4-0.1,0.8-0.1,1.2c-0.1,0.5-0.2,1-0.3,1.6l-0.4,2c-0.1,0.2-0.1,0.5-0.1,0.7c0,0.2,0,0.4,0,0.7c0,0.2,0,0.4,0.2,0.6
				c0.1,0.1,0.3,0.2,0.5,0.2c0.4,0,0.9-0.4,1.5-1.1c0.6-0.9,1-2,1-3.1l0.2-3.1c0.3-0.1,0.5-0.2,0.8-0.3c0.3-0.1,0.6-0.1,0.8-0.1
				l-0.5,2.8c-0.1,0.6-0.2,1.3-0.3,2c-0.1,0.6-0.1,1.3-0.1,1.9c0,0.4,0,0.8,0.2,1.1c0.2,0.2,0.4,0.3,0.6,0.3v0.4
				c-0.3,0.1-0.5,0.2-0.8,0.2c-0.3,0-0.5,0.1-0.8,0.1h-0.4c-0.1,0-0.2-0.1-0.3-0.1l0.5-2.5c-0.4,0.7-0.9,1.2-1.4,1.8
				c-0.4,0.5-1,0.8-1.6,0.8c-0.4,0-0.8-0.2-1-0.5C168.4,33,168.3,32.5,168.3,32.1L168.3,32.1z M176.1,32.9c0-0.3,0-0.6,0.1-1.1
				s0.1-0.9,0.1-1.2l1.3-8.9l-1.1-0.3v-0.3c0.3-0.1,0.6-0.2,0.9-0.2c0.3,0,0.6-0.1,0.9-0.1c0.1,0,0.3,0,0.4,0c0.1,0,0.3,0,0.4,0.1
				l-1.4,9.4c0,0.3-0.1,0.6-0.1,1s0,0.7,0,1c0,0.2,0.1,0.5,0.2,0.7c0.2,0.2,0.4,0.3,0.6,0.4v0.3c-0.2,0.1-0.4,0.2-0.6,0.2
				c-0.2,0-0.5,0.1-0.8,0.1c-0.2,0-0.5-0.1-0.7-0.2C176.2,33.3,176.1,33.1,176.1,32.9z M180.1,31.6c0-0.7,0.1-1.4,0.2-2.1
				c0.1-0.8,0.3-1.6,0.4-2.3l0.2-1.1h-1v-0.2c0.3-0.4,0.7-0.8,1.1-1.2c0.4-0.4,0.9-0.7,1.4-1h0.3l-0.3,1.5h1.2c0.2,0,0.5,0,0.7-0.1
				c0,0.3-0.1,0.6-0.4,0.9c-0.4,0.2-0.8,0.3-1.2,0.3h-0.5l-0.3,1.9c-0.1,0.4-0.1,1-0.2,1.6c-0.1,0.5-0.1,1-0.1,1.5
				c0,0.5,0.1,0.9,0.4,1.3c0.3,0.3,0.6,0.4,1,0.4c0.1,0,0.3,0,0.4,0c0.1,0,0.2-0.1,0.4-0.1V33c-0.1,0.3-0.3,0.5-0.6,0.6
				c-0.3,0.2-0.7,0.3-1.1,0.3c-0.5,0-1-0.2-1.4-0.6C180.2,32.8,180,32.2,180.1,31.6L180.1,31.6z M185,32.1c0-0.2,0-0.5,0.1-0.7
				l0.1-0.7l0.4-2.1c0.1-0.3,0.1-0.7,0.2-1.1c0.1-0.4,0.1-0.7,0.1-1.1c0-0.2-0.1-0.5-0.2-0.7c-0.2-0.2-0.4-0.3-0.6-0.3v-0.3
				c0.2-0.1,0.4-0.2,0.7-0.2c0.3-0.1,0.5-0.1,0.8-0.1c0.2,0,0.5,0.1,0.6,0.2c0.2,0.2,0.2,0.4,0.2,0.6c0,0.4-0.1,0.8-0.1,1.2
				c-0.1,0.5-0.2,1-0.3,1.6l-0.4,2c-0.1,0.2-0.1,0.5-0.1,0.7c0,0.2,0,0.4-0.1,0.7c0,0.2,0,0.4,0.2,0.6c0.1,0.1,0.3,0.2,0.5,0.2
				c0.4,0,0.9-0.4,1.5-1.1c0.6-0.9,1-2,1-3.1l0.2-3.1c0.2-0.1,0.5-0.2,0.8-0.3c0.3-0.1,0.6-0.1,0.9-0.1l-0.5,2.8
				c-0.1,0.6-0.2,1.3-0.3,2c-0.1,0.6-0.1,1.3-0.1,1.9c0,0.4,0,0.8,0.2,1.1c0.2,0.2,0.4,0.3,0.6,0.3v0.4c-0.3,0.1-0.5,0.2-0.8,0.2
				c-0.3,0-0.5,0.1-0.8,0.1h-0.4c-0.1,0-0.2-0.1-0.3-0.1l0.5-2.5c-0.4,0.7-0.8,1.3-1.4,1.8c-0.4,0.5-1,0.8-1.6,0.8
				c-0.4,0-0.8-0.2-1-0.5C185.1,33,185,32.5,185,32.1L185,32.1z M192.8,32.1c0-0.2,0-0.5,0.1-0.7l0.1-0.7l0.4-2.1
				c0.1-0.3,0.1-0.7,0.2-1.1c0.1-0.4,0.1-0.7,0.1-1.1c0-0.2-0.1-0.5-0.2-0.7c-0.2-0.2-0.4-0.3-0.6-0.3v-0.3c0.2-0.1,0.4-0.2,0.7-0.2
				c0.3-0.1,0.5-0.1,0.8-0.1c0.2,0,0.5,0.1,0.6,0.2c0.2,0.2,0.2,0.4,0.2,0.6c0,0.4-0.1,0.8-0.1,1.2c-0.1,0.5-0.2,1-0.3,1.6l-0.4,2
				c0,0.2-0.1,0.4-0.1,0.7c0,0.2,0,0.4-0.1,0.7c0,0.2,0,0.4,0.2,0.6c0.1,0.1,0.3,0.2,0.5,0.2c0.4,0,0.9-0.4,1.5-1.1
				c0.6-0.9,1-2,1-3.1l0.2-3.1c0.2-0.1,0.5-0.2,0.8-0.3c0.3-0.1,0.6-0.1,0.9-0.1l-0.5,2.8c-0.1,0.6-0.2,1.3-0.3,2
				c-0.1,0.6-0.1,1.3-0.1,1.9c0,0.4,0,0.8,0.2,1.1c0.2,0.2,0.4,0.3,0.6,0.3v0.4c-0.3,0.1-0.5,0.2-0.8,0.2c-0.3,0-0.5,0.1-0.8,0.1
				H197c-0.1,0-0.2-0.1-0.3-0.1l0.5-2.5c-0.4,0.7-0.8,1.3-1.4,1.8c-0.4,0.5-1,0.8-1.6,0.8c-0.4,0-0.8-0.2-1-0.5
				C192.8,33,192.7,32.5,192.8,32.1L192.8,32.1z M200.6,33.6l0.9-7.8l-1.1-0.3v-0.3c0.3-0.1,0.6-0.2,0.9-0.2c0.3,0,0.6-0.1,0.9-0.1
				h0.4c0.1,0,0.3,0,0.4,0.1l-0.5,2.6l1-1.6c0.2-0.3,0.4-0.6,0.7-0.9c0.2-0.2,0.5-0.3,0.8-0.3c0.2,0,0.3,0.1,0.4,0.2
				c0.1,0.1,0.2,0.3,0.2,0.5c0,0.2,0,0.3-0.1,0.5c0,0.2-0.1,0.3-0.1,0.5c-0.1,0-0.2,0-0.3,0c-0.1,0-0.2,0-0.3,0
				c-0.7,0.1-1.3,0.4-1.6,1c-0.6,1.1-0.9,2.3-0.9,3.5l-0.1,2.6L200.6,33.6z M208.4,30.7c-0.1-1.6,0.3-3.2,1.2-4.5
				c0.6-0.8,1.5-1.4,2.5-1.5c0.5,0,1,0.1,1.4,0.5c0.4,0.4,0.5,0.9,0.5,1.4c0,1-0.5,2-1.4,2.5c-0.9,0.6-1.9,0.9-3,0.9
				c-0.1,0.8,0.1,1.5,0.4,2.2c0.3,0.4,0.7,0.6,1.2,0.5c0.4,0,0.7-0.1,1.1-0.3c0.3-0.1,0.7-0.3,0.9-0.6c0,0.1,0.1,0.1,0.1,0.2
				c0,0.1,0.1,0.2,0.1,0.3c0,0.5-0.3,0.9-0.8,1.1c-0.6,0.3-1.2,0.5-1.8,0.5c-0.7,0-1.4-0.2-1.9-0.8
				C208.6,32.4,208.3,31.5,208.4,30.7L208.4,30.7z M209.9,29.2c0.7,0,1.4-0.2,2-0.6c0.5-0.4,0.8-1,0.8-1.6c0-0.3-0.1-0.6-0.2-0.9
				c-0.2-0.2-0.4-0.3-0.6-0.3c-0.4,0-0.8,0.3-1.3,1C210.1,27.5,209.8,28.3,209.9,29.2L209.9,29.2z M215.3,33.6l0.9-7.8l-1.1-0.3
				v-0.3c0.3-0.1,0.6-0.2,0.9-0.2c0.3-0.1,0.6-0.1,0.9-0.1h0.4c0.1,0,0.3,0,0.4,0.1l-0.6,2.8c0.3-0.8,0.8-1.5,1.5-2.1
				c0.5-0.5,1.1-0.8,1.8-0.8c0.4,0,0.7,0.1,1,0.4c0.3,0.3,0.4,0.8,0.4,1.2c0,0.4,0,0.7-0.1,1.1c-0.1,0.4-0.1,0.8-0.2,1.2l-0.3,1.9
				c0,0.2-0.1,0.5-0.1,0.8c0,0.2-0.1,0.5-0.1,0.7c0,0.2,0.1,0.5,0.2,0.7c0.2,0.2,0.4,0.2,0.6,0.3v0.3c-0.2,0.1-0.4,0.2-0.7,0.3
				c-0.3,0.1-0.5,0.1-0.8,0.1c-0.2,0-0.5-0.1-0.6-0.2c-0.2-0.2-0.2-0.4-0.2-0.6c0-0.3,0-0.6,0.1-0.9c0.1-0.4,0.1-0.7,0.1-1l0.4-2.1
				c0-0.3,0.1-0.6,0.1-0.9c0-0.3,0-0.6,0-0.9c0-0.3,0-0.6-0.2-0.9c-0.1-0.2-0.3-0.2-0.6-0.2c-0.5,0-1,0.4-1.6,1.3
				c-0.6,1-0.9,2.1-0.9,3.2l-0.1,3L215.3,33.6z M2.8,54.4L1.3,43.6l-0.9-0.3v-0.4c0.3-0.1,0.5-0.2,0.8-0.2c0.3,0,0.5-0.1,0.8-0.1
				c0.2,0,0.5,0,0.7,0c0.2,0,0.5,0.1,0.7,0.1v0.3c-0.1,0-0.3,0.1-0.3,0.2C3,43.4,3,43.5,3,43.6L3.8,52l2.9-9.3l1.7-0.1l0.7,9.7
				l2.8-8.8l-0.9-0.3v-0.4c0.3-0.1,0.6-0.2,0.8-0.2c0.3,0,0.6-0.1,0.9-0.1c0.2,0,0.4,0,0.5,0c0.2,0,0.3,0.1,0.5,0.1v0.3
				c-0.1,0-0.3,0.1-0.4,0.2c-0.1,0.1-0.2,0.2-0.2,0.3L9.2,54.3l-1.2,0L7.1,44.2L4,54.3L2.8,54.4z M13,51.3c-0.1-1.6,0.3-3.2,1.2-4.5
				c0.6-0.8,1.5-1.4,2.5-1.5c0.5,0,1,0.1,1.4,0.5c0.4,0.4,0.5,0.9,0.5,1.4c0,1-0.5,2-1.4,2.5c-0.9,0.6-1.9,0.9-2.9,0.9
				c-0.1,0.7,0.1,1.5,0.4,2.2c0.3,0.4,0.7,0.6,1.2,0.5c0.4,0,0.7-0.1,1.1-0.3c0.3-0.1,0.7-0.3,0.9-0.6c0,0.1,0.1,0.1,0.1,0.2
				c0,0.1,0.1,0.2,0.1,0.3c0,0.5-0.3,0.9-0.8,1.1c-0.6,0.3-1.2,0.5-1.9,0.5c-0.7,0-1.4-0.3-1.8-0.8C13.2,53,12.9,52.2,13,51.3z
				 M14.5,49.8c0.7,0,1.4-0.2,2-0.6c0.5-0.4,0.8-1,0.8-1.6c0-0.3,0-0.6-0.2-0.9c-0.2-0.2-0.4-0.3-0.6-0.3c-0.4,0-0.8,0.3-1.3,1
				C14.7,48.1,14.5,49,14.5,49.8L14.5,49.8z M20,52.2c0-0.7,0.1-1.4,0.2-2.1c0.1-0.8,0.2-1.6,0.4-2.3l0.2-1.2h-1v-0.2
				c0.3-0.4,0.7-0.8,1.1-1.2c0.4-0.4,0.9-0.7,1.4-1h0.3l-0.3,1.5h1.2c0.2,0,0.5,0,0.7-0.1c0,0.3-0.1,0.6-0.4,0.8
				c-0.4,0.2-0.8,0.3-1.2,0.3H22l-0.3,1.9c-0.1,0.4-0.1,1-0.2,1.6c-0.1,0.5-0.1,1-0.1,1.5c0,0.5,0.1,0.9,0.4,1.3
				c0.3,0.3,0.6,0.4,1,0.4c0.1,0,0.3,0,0.4,0c0.1,0,0.2-0.1,0.4-0.1v0.3c-0.1,0.3-0.3,0.5-0.6,0.6c-0.3,0.2-0.7,0.3-1.1,0.3
				c-0.5,0-1-0.2-1.4-0.6C20.1,53.4,19.9,52.8,20,52.2L20,52.2z M24.4,51.3c-0.1-1.6,0.3-3.2,1.2-4.5c0.6-0.8,1.5-1.4,2.5-1.5
				c0.5,0,1,0.1,1.4,0.5c0.4,0.4,0.5,0.9,0.5,1.4c0,1-0.5,2-1.4,2.5c-0.9,0.6-1.9,0.9-3,0.9c-0.1,0.8,0.1,1.5,0.4,2.2
				c0.3,0.4,0.7,0.6,1.2,0.5c0.4,0,0.7-0.1,1.1-0.3c0.3-0.1,0.7-0.3,0.9-0.6c0,0.1,0.1,0.1,0.1,0.2c0,0.1,0.1,0.2,0.1,0.3
				c0,0.5-0.3,0.9-0.7,1.1c-0.6,0.3-1.2,0.5-1.8,0.5c-0.7,0-1.4-0.2-1.9-0.8C24.6,53,24.3,52.2,24.4,51.3z M25.8,49.8
				c0.7,0,1.4-0.2,2-0.6c0.5-0.4,0.8-1,0.8-1.6c0-0.3-0.1-0.6-0.2-0.9c-0.2-0.2-0.4-0.3-0.6-0.3c-0.4,0-0.8,0.3-1.3,1
				C26,48.1,25.8,49,25.8,49.8z M31.2,54.2l0.9-7.8L31,46.1v-0.3c0.3-0.1,0.6-0.2,0.9-0.2c0.3-0.1,0.6-0.1,0.9-0.1h0.4
				c0.1,0,0.3,0,0.4,0.1L33,48.3c0.3-0.8,0.8-1.5,1.5-2.1c0.5-0.5,1.1-0.8,1.8-0.8c0.4,0,0.7,0.1,1,0.4c0.3,0.3,0.4,0.8,0.4,1.2
				c0,0.4,0,0.7-0.1,1.1c-0.1,0.4-0.1,0.8-0.2,1.2l-0.3,1.9c0,0.2-0.1,0.5-0.1,0.8c0,0.2-0.1,0.5-0.1,0.7c0,0.2,0.1,0.5,0.2,0.7
				c0.2,0.2,0.4,0.2,0.6,0.3V54c-0.2,0.1-0.4,0.2-0.7,0.3c-0.3,0.1-0.5,0.1-0.8,0.1c-0.2,0-0.5-0.1-0.7-0.2
				c-0.2-0.2-0.2-0.4-0.2-0.6c0-0.3,0-0.6,0.1-0.9c0-0.4,0.1-0.7,0.1-1l0.3-2.1c0-0.3,0.1-0.6,0.1-0.9c0-0.3,0.1-0.6,0.1-0.9
				c0-0.3-0.1-0.6-0.2-0.8c-0.1-0.2-0.3-0.2-0.6-0.2c-0.5,0-1,0.4-1.6,1.3c-0.6,1-0.9,2.1-0.9,3.2l-0.1,3L31.2,54.2z M38.7,53.4
				c0-0.1,0-0.3,0.1-0.4c0.1-0.1,0.1-0.2,0.2-0.3c0.2,0.2,0.5,0.4,0.8,0.6c0.3,0.1,0.7,0.2,1,0.2c0.4,0,0.8-0.1,1.1-0.3
				c0.3-0.2,0.5-0.5,0.5-0.9c0-0.3-0.1-0.6-0.2-0.8c-0.2-0.4-0.5-0.7-0.9-1l-0.6-0.6c-0.3-0.3-0.6-0.6-0.8-1c-0.4-0.9-0.2-2,0.5-2.7
				c0.5-0.5,1.3-0.8,2-0.8c0.5,0,1,0.1,1.5,0.3c0.3,0.1,0.5,0.4,0.5,0.7c0,0.2,0,0.3-0.1,0.5c-0.1,0.2-0.1,0.3-0.2,0.4
				c-0.3-0.3-0.6-0.5-0.9-0.6c-0.3-0.1-0.7-0.2-1-0.2c-0.3,0-0.6,0.1-0.9,0.3c-0.2,0.2-0.3,0.4-0.3,0.7c0,0.3,0.1,0.5,0.2,0.7
				c0.3,0.3,0.6,0.6,0.9,0.9l0.7,0.6c0.4,0.3,0.7,0.6,0.9,1c0.2,0.3,0.3,0.7,0.3,1c0,0.7-0.4,1.4-1,1.9c-0.7,0.5-1.5,0.8-2.4,0.8
				c-0.4,0-0.9-0.1-1.2-0.3C38.9,53.9,38.8,53.7,38.7,53.4z M47.2,54.5c-0.6,0-1.2-0.3-1.6-0.8c-0.5-0.7-0.7-1.6-0.6-2.4
				c-0.1-1.6,0.3-3.1,1.2-4.4c0.6-0.9,1.5-1.4,2.6-1.5c0.4,0,0.8,0.1,1.2,0.3c0.2,0.1,0.4,0.4,0.4,0.6c0,0.2,0,0.4-0.1,0.7
				c-0.1,0.2-0.2,0.4-0.3,0.6c-0.2-0.3-0.4-0.6-0.7-0.8c-0.3-0.2-0.6-0.3-0.9-0.3c-0.4,0-0.8,0.4-1.3,1.1c-0.5,1.1-0.8,2.3-0.7,3.5
				c0,0.6,0.1,1.3,0.4,1.8c0.2,0.3,0.5,0.5,0.9,0.6c0.4,0,0.7-0.1,1-0.3c0.3-0.2,0.6-0.5,0.8-0.8c0.1,0.1,0.1,0.1,0.1,0.2
				c0,0.1,0,0.2,0,0.3c0,0.5-0.2,0.9-0.6,1.2C48.5,54.4,47.9,54.5,47.2,54.5z M50.9,54.2l0.8-5.8l0.6-6.1l-1.1-0.3v-0.3
				c0.3-0.1,0.6-0.2,0.9-0.2c0.3,0,0.6-0.1,0.9-0.1c0.1,0,0.3,0,0.4,0c0.1,0,0.3,0,0.4,0.1l-1,6.6c0.3-0.7,0.8-1.3,1.3-1.8
				c0.5-0.4,1.1-0.7,1.7-0.7c0.4,0,0.8,0.2,1,0.5c0.3,0.3,0.4,0.8,0.4,1.2c0,0.4,0,0.7-0.1,1.1c-0.1,0.4-0.1,0.8-0.2,1.2l-0.3,1.9
				c0,0.2-0.1,0.5-0.1,0.8s0,0.6,0,0.8c0,0.2,0.1,0.5,0.2,0.7c0.2,0.2,0.4,0.3,0.6,0.3V54c-0.2,0.1-0.4,0.2-0.7,0.3
				c-0.3,0.1-0.5,0.1-0.8,0.1c-0.2,0-0.5-0.1-0.7-0.2C55,54,55,53.7,55,53.5c0-0.3,0-0.6,0.1-0.9c0.1-0.4,0.1-0.8,0.2-1l0.3-2
				c0-0.3,0.1-0.6,0.1-1c0-0.3,0-0.6,0-0.9c0-0.3,0-0.6-0.2-0.8c-0.2-0.2-0.4-0.2-0.6-0.2c-0.4,0-0.9,0.4-1.5,1.1
				c-0.6,0.9-0.9,1.9-0.9,3l-0.2,3.4L50.9,54.2z M60.3,54.4c-0.5,0-0.9-0.4-1.1-0.8c-0.4-0.7-0.6-1.5-0.5-2.4
				C58.6,49.7,59,48.2,60,47c0.8-1,2-1.5,3.2-1.5c0.3,0,0.7,0,1,0.1c0.4,0.1,0.7,0.1,1,0.2l-0.6,3.2c-0.1,0.6-0.2,1.2-0.3,1.8
				c-0.1,0.7-0.1,1.2-0.1,1.6c0,0.4,0,0.8,0.2,1.1c0.2,0.2,0.4,0.3,0.7,0.3v0.4c-0.2,0.1-0.5,0.2-0.8,0.2c-0.3,0-0.6,0.1-0.8,0.1
				c-0.1,0-0.3,0-0.4,0l-0.4-0.1l0.4-2.7c-0.3,0.8-0.7,1.5-1.3,2.1C61.4,54.2,60.9,54.4,60.3,54.4z M60.9,53.2
				c0.4,0,0.8-0.3,1.3-0.9c0.5-0.8,0.9-1.8,1-2.8l0.5-3c-0.1,0-0.3-0.1-0.5-0.1h-0.5c-0.8,0-1.5,0.5-1.9,1.2c-0.6,1-0.9,2.2-0.9,3.4
				c0,0.6,0.1,1.1,0.3,1.7C60.5,53,60.7,53.2,60.9,53.2z M67.8,54l-0.3,2.6c-0.1,0.4,0,0.7,0.1,1.1c0.1,0.2,0.3,0.4,0.5,0.4v0.3
				c-0.2,0.1-0.4,0.1-0.7,0.2c-0.2,0-0.5,0-0.7,0c-0.2,0-0.3,0-0.5,0c-0.1,0-0.3,0-0.4-0.1l0.3-1.5l1.4-10.6l-1.1-0.3v-0.3
				c0.3-0.1,0.6-0.2,0.9-0.2c0.3,0,0.6-0.1,0.9-0.1c0.1,0,0.2,0,0.4,0c0.1,0,0.2,0,0.3,0.1l-0.5,2.8c0.3-0.8,0.7-1.5,1.2-2.1
				c0.4-0.5,0.9-0.8,1.5-0.8c0.5,0,0.9,0.3,1.2,0.7c0.4,0.7,0.6,1.5,0.5,2.3c0.1,1.6-0.3,3.2-1.3,4.5C71,53.7,70,54.2,69,54.3
				c-0.2,0-0.4,0-0.6-0.1C68.1,54.2,67.9,54.1,67.8,54z M67.9,53.3c0.2,0,0.4,0.1,0.5,0.1h0.5c0.7-0.1,1.4-0.5,1.7-1.1
				c0.6-1,0.9-2.2,0.8-3.4c0-0.6-0.1-1.2-0.3-1.8c-0.2-0.3-0.4-0.5-0.6-0.5s-0.8,0.3-1.3,1c-0.6,0.9-0.9,1.9-1,3L67.9,53.3z"/>
		</g>
	</g>
</g>
</svg>
