<?xml version="1.0" encoding="utf-8"?>
<!-- Generator: Adobe Illustrator 23.0.3, SVG Export Plug-In . SVG Version: 6.00 Build 0)  -->
<svg version="1.1" id="Laag_1" xmlns="http://www.w3.org/2000/svg" xmlns:xlink="http://www.w3.org/1999/xlink" x="0px" y="0px"
	 viewBox="0 0 96 49.4" style="enable-background:new 0 0 96 49.4;" xml:space="preserve">
<style type="text/css">
	.st0{fill:#009FE4;}
	.st1{fill:#004388;}
</style>
<g>
	<g transform="translate(187.931 15)">
		<path class="st0" d="M-92.6,9.7c0-13.6-11-24.6-24.6-24.7c0,0,0,0-0.1,0h-8c-1.4,0-2.5,1.1-2.5,2.5s1.1,2.5,2.5,2.5h7.9
			c10.9,0,19.7,8.8,19.7,19.7s-8.8,19.7-19.7,19.7h-27.4v-4.6h-5v9.6h32.5l0,0C-103.6,34.4-92.6,23.3-92.6,9.7"/>
	</g>
	<g transform="translate(150 15)">
		<path class="st0" d="M-149.6,9.7c0,13.6,11,24.6,24.6,24.7c0,0,0,0,0.1,0h8c1.4,0,2.5-1.1,2.5-2.5s-1.1-2.5-2.5-2.5h-7.9
			c-10.9,0-19.7-8.8-19.7-19.7s8.8-19.7,19.7-19.7h27.4v4.6h5V-15h-32.5l0,0C-138.5-14.9-149.6-3.9-149.6,9.7"/>
	</g>
	<path class="st1" d="M26,26.9l-4.7-12.4h-5.7l8.1,20.4h3.9L36,14.5h-5.4L26,26.9z M52.6,27.5l-7.9-13h-6.4v20.4h5V21.6l8.1,13.3
		h6.2V14.5h-5C52.6,14.5,52.6,27.5,52.6,27.5z M71.9,22.5v4.7h3.5v2.7c-0.5,0.2-0.9,0.4-1.4,0.5c-0.7,0.2-1.4,0.3-2.4,0.3
		c-0.9,0-1.7-0.2-2.4-0.4c-0.7-0.3-1.3-0.7-1.8-1.2s-0.9-1.2-1.2-1.9c-0.3-0.7-0.4-1.5-0.4-2.4s0.1-1.7,0.4-2.4s0.7-1.4,1.2-1.9
		s1.1-1,1.8-1.2c0.7-0.3,1.5-0.4,2.4-0.4c1.1,0,2,0.2,2.7,0.4c0.7,0.3,1.3,0.7,1.9,1.3l0.2,0.2l3.5-3.8l-0.2-0.2c-1-1-2.3-1.7-3.6-2
		c-1.4-0.4-2.8-0.6-4.4-0.6s-3,0.3-4.4,0.7c-1.3,0.5-2.5,1.2-3.5,2.1s-1.7,2.1-2.3,3.4c-0.5,1.3-0.8,2.8-0.8,4.4
		c0,1.6,0.3,3.1,0.8,4.4c0.5,1.3,1.3,2.5,2.3,3.4s2.1,1.6,3.5,2.1c1.3,0.5,2.8,0.7,4.4,0.7c1.5,0,2.9-0.2,4.3-0.5s2.8-0.8,4.1-1.5
		l0.2-0.1V22.5H71.9L71.9,22.5z"/>
</g>
</svg>
