<svg xmlns="http://www.w3.org/2000/svg" viewBox="39 24.2 71.074 37.012"><defs><style>.a{fill:#009fe3;}.b{fill:#004388;}</style></defs><g transform="translate(-132.1 -879)"><path class="a" d="M83.071,18.471A18.57,18.57,0,0,0,64.67,0H58.63a1.9,1.9,0,0,0,0,3.792H64.6a14.749,14.749,0,0,1,0,29.5H44.022V29.848H40.3v7.164H64.6A18.6,18.6,0,0,0,83.071,18.471Z" transform="translate(159.103 903.2)"/><path class="a" d="M0,18.471A18.434,18.434,0,0,0,18.4,36.942h6.04a1.9,1.9,0,1,0,0-3.792h-5.97a14.749,14.749,0,0,1,0-29.5H38.978V7.093H42.7V0H18.471A18.493,18.493,0,0,0,0,18.471Z" transform="translate(171.1 903.2)"/><path class="b" d="M24,24.771,20.484,15.5H16.2l6.11,15.24h2.95L31.581,15.5H27.507Z" transform="translate(166.278 898.586)"/><path class="b" d="M51.045,25.192,45.076,15.5H40.3V30.74h3.722V20.767l6.11,9.973h4.635V15.5H51.045Z" transform="translate(159.103 898.586)"/><path class="b" d="M72.628,21.351v3.512H75.3V26.9a8.174,8.174,0,0,1-1.053.421,6.323,6.323,0,0,1-1.756.211,5.275,5.275,0,0,1-1.826-.351,3.747,3.747,0,0,1-1.334-.913,3.584,3.584,0,0,1-.843-1.4,5.237,5.237,0,0,1-.281-1.826,5.237,5.237,0,0,1,.281-1.826,3.942,3.942,0,0,1,.843-1.4,3.489,3.489,0,0,1,1.334-.913,4.974,4.974,0,0,1,1.826-.351,5.187,5.187,0,0,1,1.966.351,4.639,4.639,0,0,1,1.4.983l.211.211,2.6-2.879-.211-.14a6.621,6.621,0,0,0-2.739-1.545,12.127,12.127,0,0,0-3.3-.421,10.173,10.173,0,0,0-3.3.562,7.071,7.071,0,0,0-2.6,1.615,6.954,6.954,0,0,0-1.686,2.528,8.935,8.935,0,0,0,0,6.6,7.971,7.971,0,0,0,1.686,2.528,7.071,7.071,0,0,0,2.6,1.615,9.856,9.856,0,0,0,3.3.562,16.257,16.257,0,0,0,3.231-.351,12.567,12.567,0,0,0,3.09-1.124l.14-.07V21.351Z" transform="translate(151.989 898.705)"/></g></svg>