<?xml version="1.0" encoding="utf-8"?>
<!-- Generator: Adobe Illustrator 23.1.0, SVG Export Plug-In . SVG Version: 6.00 Build 0)  -->
<svg version="1.1" id="Laag_1" xmlns="http://www.w3.org/2000/svg" xmlns:xlink="http://www.w3.org/1999/xlink" x="0px" y="0px"
	 viewBox="0 0 363.1 320.4" style="enable-background:new 0 0 363.1 320.4;" xml:space="preserve">
<style type="text/css">
	.st0{fill:#263371;}
	.st1{fill:#FFCB04;}
</style>
<title>logo Westfriesland vector</title>
<path class="st0" d="M24.7,308.2l7-18.4c0.8,0.3,1.6,0.7,2.3,1.3c0.3,0.3,0.5,0.6,0.7,0.9c0.2,0.4,0.4,0.8,0.5,1.2
	c0.1,0.5,0.2,1,0.1,1.6c0,0.7-0.1,1.4-0.3,2c-0.4,1-0.8,2.1-1.2,3.2l-1.2,3.3c-0.4,1.1-0.8,2.1-1.2,3.1l-1,2.7
	c-0.3,0.8-0.5,1.4-0.7,1.9l-0.4,1c-0.4,1.1-0.8,2.1-1.2,2.9s-0.7,1.5-1.1,2.1c-0.3,0.5-0.6,1-1,1.5c-0.2,0.4-0.5,0.7-0.8,1
	c-0.4,0.5-0.9,0.8-1.6,0.9L17.7,305l-6.1,15.5c-0.6-0.1-1.2-0.4-1.6-0.9c-0.3-0.3-0.6-0.6-0.8-1c-0.3-0.5-0.7-1-0.9-1.5
	c-0.3-0.6-0.7-1.3-1.1-2.1S6.4,313.2,6,312l-0.4-1c-0.2-0.5-0.4-1.2-0.7-1.9c-0.3-0.8-0.6-1.7-1-2.7l-1.2-3.1
	c-0.4-1.1-0.8-2.2-1.2-3.3l-1.2-3.2c-0.2-0.6-0.3-1.3-0.3-2c0-0.5,0-1.1,0.1-1.6c0.1-0.4,0.3-0.8,0.5-1.2c0.2-0.3,0.4-0.6,0.7-0.9
	c0.6-0.6,1.4-1.1,2.3-1.3l7,18.4l7-16.7L24.7,308.2z"/>
<path class="st0" d="M63.8,319.8H41.2v-29.6h22.5c0,0.6-0.1,1.3-0.3,1.8c-0.1,0.5-0.4,0.9-0.6,1.4c-0.3,0.4-0.6,0.7-0.9,0.9
	c-0.3,0.2-0.7,0.4-1.1,0.6c-0.9,0.4-1.9,0.5-2.9,0.5H46.7v6.7h11.9c0,0.6-0.1,1.2-0.2,1.7c-0.1,0.5-0.3,0.9-0.6,1.3
	c-0.2,0.3-0.5,0.7-0.8,0.9c-0.3,0.2-0.6,0.4-0.9,0.6c-0.8,0.4-1.6,0.6-2.5,0.6h-6.9v7.4h12c0.6,0,1.2,0.1,1.7,0.2
	c0.5,0.1,0.9,0.3,1.3,0.6c0.3,0.2,0.7,0.5,0.9,0.8c0.2,0.3,0.4,0.6,0.6,1C63.5,318.1,63.7,318.9,63.8,319.8z"/>
<path class="st0" d="M76.7,295.4c-0.4,0-0.8,0-1.2,0.1c-0.2,0-0.3,0.1-0.5,0.2c-0.2,0.1-0.4,0.2-0.5,0.3c-0.2,0.1-0.4,0.3-0.5,0.4
	c-0.2,0.2-0.3,0.4-0.5,0.6c-0.3,0.4-0.4,0.9-0.5,1.3c-0.1,0.4-0.1,0.7,0,1.1c0.1,0.4,0.2,0.7,0.4,1c0.2,0.3,0.4,0.6,0.7,0.8
	c0.7,0.5,1.6,0.8,2.5,0.8h6.6c2.4-0.1,4.7,0.7,6.5,2.3c0.8,0.7,1.5,1.7,1.9,2.7c0.4,1.1,0.6,2.3,0.6,3.5v0.6c0,1.2-0.2,2.4-0.6,3.5
	c-0.4,1-1.1,2-1.9,2.7c-1.8,1.6-4.1,2.4-6.5,2.3h-9.5c-0.9,0-1.8-0.2-2.6-0.5c-0.3-0.2-0.7-0.4-1-0.6c-0.3-0.3-0.6-0.6-0.8-0.9
	c-0.3-0.4-0.5-0.8-0.6-1.3c-0.2-0.6-0.2-1.2-0.2-1.8h14.9c0.4,0,0.7-0.1,1.1-0.3c0.3-0.1,0.7-0.3,1-0.5c0.3-0.2,0.6-0.5,0.8-0.9
	c0.2-0.2,0.3-0.5,0.4-0.8c0.1-0.2,0.1-0.5,0.2-0.7c0-0.2,0-0.4,0-0.7c0-0.2,0-0.4-0.1-0.6c-0.1-0.4-0.3-0.8-0.5-1.2
	c-0.2-0.3-0.5-0.6-0.8-0.8c-0.1-0.1-0.3-0.2-0.4-0.3c-0.2-0.1-0.3-0.2-0.5-0.3c-0.2-0.1-0.4-0.1-0.6-0.2c-0.2,0-0.5-0.1-0.7-0.1
	h-6.9c-2.3,0.1-4.5-0.7-6.2-2.2c-1.6-1.5-2.5-3.7-2.4-6v-0.6c-0.1-2.2,0.8-4.4,2.4-5.9c1.7-1.5,3.9-2.3,6.2-2.2h9.8
	c0.9,0,1.8,0.1,2.6,0.5c0.4,0.2,0.7,0.4,1,0.6c0.3,0.3,0.6,0.6,0.8,0.9c0.3,0.4,0.5,0.9,0.6,1.3c0.2,0.6,0.2,1.2,0.2,1.8L76.7,295.4
	z"/>
<path class="st0" d="M112.2,295.5h-3.3v19.3c0,0.6-0.1,1.3-0.2,1.9c-0.1,0.5-0.3,0.9-0.6,1.4c-0.2,0.4-0.5,0.7-0.9,0.9
	c-0.3,0.2-0.6,0.4-1,0.6c-0.9,0.4-1.8,0.5-2.7,0.5v-24.6h-3c-1,0-1.9-0.2-2.8-0.6c-0.4-0.2-0.7-0.4-1-0.6c-0.3-0.3-0.7-0.6-0.9-0.9
	c-0.3-0.4-0.5-0.8-0.6-1.3c-0.2-0.6-0.3-1.2-0.2-1.8h22.7c0,0.9-0.2,1.8-0.5,2.6c-0.2,0.4-0.4,0.7-0.6,1c-0.3,0.3-0.6,0.6-1,0.8
	c-0.4,0.3-0.9,0.5-1.4,0.6C113.5,295.5,112.8,295.5,112.2,295.5z"/>
<path class="st0" d="M126.3,314.7c0,0.6-0.1,1.2-0.2,1.7c-0.1,0.5-0.3,0.9-0.6,1.3c-0.2,0.3-0.5,0.7-0.9,0.9c-0.3,0.2-0.6,0.4-1,0.6
	c-0.9,0.4-1.8,0.6-2.7,0.6v-29.6h22.5c0,0.6-0.1,1.2-0.2,1.8c-0.1,0.5-0.4,0.9-0.7,1.4c-0.3,0.4-0.6,0.7-0.9,0.9
	c-0.3,0.2-0.7,0.4-1.1,0.6c-0.9,0.4-1.9,0.5-2.9,0.5h-11.3v6.7h11.9c0,0.6-0.1,1.2-0.2,1.7c-0.1,0.5-0.3,0.9-0.6,1.3
	c-0.2,0.3-0.5,0.7-0.8,0.9c-0.3,0.2-0.6,0.5-0.9,0.6c-0.8,0.4-1.6,0.6-2.5,0.6h-6.9L126.3,314.7z"/>
<path class="st0" d="M155,308.9h-2.9v5.2c0,0.8-0.1,1.5-0.2,2.2c-0.1,0.6-0.3,1.1-0.6,1.6c-0.2,0.4-0.5,0.8-0.9,1.1
	c-0.3,0.3-0.6,0.5-1,0.7c-0.8,0.4-1.8,0.5-2.7,0.5v-29.9h13.9c1.1,0,2.3,0.1,3.4,0.5c0.9,0.3,1.8,0.7,2.7,1.2c0.7,0.5,1.4,1,2,1.7
	c0.5,0.6,1,1.2,1.4,1.9c0.3,0.6,0.6,1.3,0.8,1.9c0.2,0.5,0.2,1.1,0.3,1.7c0,0.7-0.1,1.3-0.2,2c-0.1,0.6-0.3,1.2-0.5,1.8
	c-0.2,0.6-0.5,1.1-0.9,1.6c-0.4,0.5-0.8,1-1.2,1.5c-1.2,1.2-2.7,2-4.3,2.4h-0.1l7.8,11.3h-6.8l-5.6-8.7c-0.2-0.4-0.5-0.8-0.9-1.1
	c-0.2-0.1-0.4-0.3-0.6-0.4c-0.2-0.1-0.5-0.3-0.7-0.3c-0.3-0.1-0.6-0.2-0.9-0.3C155.8,308.9,155.4,308.8,155,308.9z M165.7,299.2
	c0-0.3,0-0.5-0.1-0.8c-0.1-0.3-0.2-0.6-0.3-0.8c-0.2-0.3-0.4-0.6-0.6-0.8c-0.3-0.3-0.6-0.5-1-0.7c-0.5-0.2-0.9-0.4-1.4-0.5
	c-0.6-0.1-1.3-0.2-1.9-0.2h-8.1v6.1c0.1,0.3,0.3,0.5,0.5,0.8c0.2,0.2,0.4,0.4,0.6,0.5c0.2,0.1,0.5,0.3,0.8,0.4
	c0.3,0.1,0.5,0.2,0.8,0.2c0.7,0.1,1.3,0.2,2,0.2h3.4c0.8,0,1.6-0.1,2.4-0.4c0.7-0.2,1.2-0.6,1.7-1.1c0.2-0.2,0.4-0.4,0.6-0.7
	c0.2-0.2,0.3-0.4,0.4-0.6c0.1-0.2,0.2-0.5,0.3-0.8C165.7,299.8,165.7,299.5,165.7,299.2z"/>
<path class="st0" d="M182,319.7h-5.5v-30c0.9,0,1.9,0.1,2.8,0.5c0.4,0.2,0.7,0.4,1,0.6c0.3,0.3,0.6,0.6,0.9,1
	c0.3,0.4,0.5,0.9,0.6,1.4c0.2,0.7,0.2,1.3,0.2,2v3.3c0,0.8,0,1.7,0,2.7v3.1c0,1.1,0,2.2,0,3.3v3.3c0,1.1,0,2.1,0,3.1v2.6
	c0,0.8,0,1.5,0,2L182,319.7z"/>
<path class="st0" d="M212.5,319.8H190v-29.6h22.5c0,0.6-0.1,1.3-0.3,1.8c-0.1,0.5-0.4,0.9-0.7,1.4c-0.3,0.4-0.6,0.7-0.9,0.9
	c-0.3,0.2-0.7,0.4-1.1,0.6c-0.9,0.4-1.9,0.5-2.9,0.5h-11.3v6.7h11.9c0,0.6-0.1,1.2-0.2,1.7c-0.1,0.5-0.3,0.9-0.6,1.3
	c-0.2,0.3-0.5,0.7-0.8,0.9c-0.3,0.2-0.6,0.4-0.9,0.6c-0.8,0.4-1.6,0.6-2.5,0.6h-6.9v7.4h12c0.6,0,1.2,0.1,1.7,0.2
	c0.5,0.1,0.9,0.3,1.3,0.6c0.3,0.2,0.6,0.5,0.9,0.8c0.2,0.3,0.4,0.6,0.6,1C212.3,318.1,212.5,318.9,212.5,319.8z"/>
<path class="st0" d="M225.4,295.4c-0.4,0-0.8,0-1.2,0.1c-0.2,0-0.3,0.1-0.5,0.2c-0.2,0.1-0.4,0.2-0.5,0.3c-0.2,0.1-0.4,0.3-0.5,0.4
	c-0.2,0.2-0.3,0.4-0.5,0.6c-0.3,0.4-0.4,0.9-0.5,1.3c0,0.4,0,0.7,0.1,1.1c0.1,0.4,0.2,0.7,0.4,1c0.2,0.3,0.4,0.6,0.7,0.8
	c0.3,0.2,0.6,0.4,1,0.5c0.5,0.2,1,0.3,1.5,0.3h6.5c2.4-0.1,4.7,0.7,6.5,2.3c0.8,0.7,1.5,1.7,1.9,2.7c0.4,1.1,0.6,2.3,0.6,3.5v0.6
	c0,1.2-0.2,2.4-0.6,3.5c-0.4,1-1.1,2-1.9,2.7c-1.8,1.6-4.1,2.4-6.5,2.3h-9.5c-0.9,0-1.8-0.2-2.6-0.5c-0.4-0.2-0.7-0.3-1-0.6
	c-0.3-0.3-0.6-0.6-0.8-0.9c-0.3-0.4-0.5-0.8-0.6-1.3c-0.2-0.6-0.2-1.2-0.2-1.8h14.9c0.4,0,0.8-0.1,1.1-0.3c0.3-0.1,0.6-0.3,0.9-0.5
	c0.3-0.2,0.6-0.5,0.8-0.9c0.2-0.2,0.3-0.5,0.4-0.8c0.1-0.2,0.1-0.5,0.2-0.7c0-0.2,0-0.4,0-0.7c0-0.2,0-0.4-0.1-0.6
	c-0.1-0.4-0.3-0.8-0.5-1.2c-0.2-0.3-0.5-0.6-0.8-0.8c-0.1-0.1-0.3-0.2-0.4-0.3c-0.2-0.1-0.3-0.2-0.5-0.3c-0.2-0.1-0.4-0.1-0.6-0.2
	c-0.2,0-0.5-0.1-0.7-0.1h-6.9c-2.3,0.1-4.5-0.7-6.2-2.2c-1.6-1.5-2.5-3.7-2.4-6v-0.6c-0.1-2.2,0.8-4.4,2.4-5.9
	c1.7-1.5,3.9-2.3,6.2-2.2h9.8c0.9,0,1.8,0.1,2.6,0.5c0.4,0.2,0.7,0.4,1,0.6c0.3,0.3,0.6,0.6,0.8,0.9c0.3,0.4,0.5,0.9,0.6,1.3
	c0.2,0.6,0.2,1.2,0.2,1.8L225.4,295.4z"/>
<path class="st0" d="M268.8,319.7h-22.4v-29.5h5.4v24.4h11.5c0.6,0,1.3,0.1,1.9,0.2c0.5,0.1,1,0.3,1.4,0.6c0.4,0.2,0.7,0.5,1,0.8
	c0.2,0.3,0.5,0.6,0.6,0.9C268.6,318,268.8,318.8,268.8,319.7z"/>
<path class="st0" d="M292.8,314.4H285c-0.9,0-1.9-0.1-2.7-0.5c-0.4-0.1-0.7-0.3-1-0.6c-0.3-0.3-0.6-0.6-0.9-0.9
	c-0.3-0.4-0.5-0.9-0.6-1.3c-0.2-0.6-0.2-1.2-0.2-1.8h13.3v-6c0-1.2-0.2-2.4-0.5-3.6c-0.3-1-0.9-2-1.6-2.8c-1.4-1.6-3.4-2.4-5.5-2.4
	c-1,0-2.1,0.2-3,0.6c-0.9,0.4-1.8,1-2.5,1.8c-1.5,1.8-2.3,4-2.2,6.4v16.5H272v-17.6c-0.1-5.2,3.1-9.9,7.9-11.8
	c3.4-1.2,7.1-1.2,10.5,0c1.6,0.6,3,1.6,4.2,2.8c2.4,2.4,3.8,5.6,3.7,9v17.6h-5.5L292.8,314.4L292.8,314.4z"/>
<path class="st0" d="M327.7,295.4v17c0,0.9,0.1,1.7,0,2.4c-0.1,0.7-0.1,1.3-0.1,1.8c0,0.5-0.1,0.9-0.2,1.4c-0.1,0.3-0.2,0.7-0.3,1
	c-0.1,0.5-0.4,0.9-0.8,1.3l-17.6-17.6v17.5c-0.9,0.2-1.9,0.1-2.8-0.3c-0.4-0.2-0.7-0.5-1-0.8c-0.4-0.4-0.7-0.8-0.9-1.3
	c-0.3-0.6-0.5-1.3-0.6-2c-0.2-0.9-0.3-1.8-0.2-2.8v-15.3c0-1.3,0-2.6,0.1-3.8c0-0.5,0.1-0.9,0.2-1.4c0.1-0.4,0.2-0.8,0.3-1.2
	c0.1-0.3,0.3-0.6,0.5-0.9c0.2-0.2,0.4-0.3,0.7-0.3c0.2,0.2,0.5,0.5,0.8,0.8l1.3,1.3l1.6,1.7l1.9,1.9l2,2.1l2.1,2.1l7.9,8.3v-18.3
	c0.9-0.1,1.8,0.1,2.6,0.5c0.4,0.2,0.7,0.4,1,0.6c0.3,0.3,0.6,0.6,0.8,1c0.3,0.4,0.5,0.9,0.6,1.4
	C327.6,294.1,327.7,294.7,327.7,295.4z"/>
<path class="st0" d="M342.4,314.6h5.3c1.7-0.1,3.4-0.5,5-1.3c0.7-0.3,1.3-0.7,1.8-1.2c0.6-0.5,1.2-1.1,1.6-1.8
	c0.5-0.8,0.9-1.6,1.1-2.5c0.3-1.1,0.5-2.3,0.4-3.4c0-0.5-0.1-1-0.2-1.5c-0.1-0.5-0.3-0.9-0.4-1.4c-0.2-0.4-0.4-0.8-0.6-1.2
	c-0.2-0.4-0.5-0.7-0.7-1c-0.6-0.7-1.2-1.4-2-1.9c-0.5-0.4-1.1-0.7-1.7-0.9c-0.6-0.3-1.3-0.5-1.9-0.7c-0.8-0.2-1.6-0.3-2.4-0.3h-7.3
	l-0.1,24.4H335v-29.6h12.4c2.2,0,4.4,0.3,6.5,1.1c5.6,2.2,9.3,7.6,9.3,13.7c0.1,3.9-1.5,7.6-4.3,10.3c-3,2.9-7,4.5-11.2,4.4
	c-0.9,0.1-1.8-0.1-2.6-0.4c-0.4-0.1-0.7-0.3-1-0.6c-0.3-0.3-0.6-0.6-0.8-0.9c-0.3-0.4-0.5-0.9-0.6-1.3
	C342.5,315.9,342.4,315.2,342.4,314.6z"/>
<polygon class="st1" points="177.4,2.7 239.3,0 275.8,50.1 316.5,96.8 300.1,156.6 289,217.6 232,242 177.4,271.3 122.7,242 
	65.8,217.6 54.6,156.6 38.2,96.8 78.9,50.1 115.4,0 "/>
<path class="st0" d="M117,62.9c0,0,6.6,7,6.6,14s-7.4,10.3-5.8,16s15.2,18.1,15.2,18.1s2.5-18.5,2.1-23.9s-0.4-17.7-0.4-17.7
	s-1.6-9.5,0-10.3s8.6,6.2,8.6,6.2s8.2-2.5,11.9-1.6c2.7,0.6,5.5,1,8.2,1.2l10.3-5.4c0,0-1.6,11.1-3.3,12.8c0,0,2.5,13.2,1.6,16.4
	s3.7,17.7,8.2,19.8c0,0-7.4,8.2-1.2,7.8s44-6.2,62.9,5.8c0,0,11.9-16-6.6-14.4s-18.9-5.4-18.9-5.4s-29.2,4.1-29.2-18.1
	s21.4-19.3,32.9-19.3s24.7-8.6,24.7-8.6s8.2,3.3,3.7,10.3S233.9,76,220.3,76s-21.8,1.6-21.4,7.8s11.1,9,24.7,7.8s21.8,0,27.6,5.3
	c5.8,5.3,18.9,24.3-0.8,35.4c0,0-1.6,16.5,0.4,19.8s10.7,2.9,10.7,2.9v28.4c0,0-5.3,0.8-5.8,4.1c-0.4,3.3-3.7,9-9.5,5.8
	s-5.4,1.2-11.5,1.6s-8.6-9.5-6.2-13.6s11.1-2.9,14.4-2.5s7-0.4,6.6-3.3s-0.8-9.9-4.9-9.5s-10.3-1.6-14-7.8s-5.8-14.8-5.8-14.8
	s-15.2,7-13.6,11.9s3.7,11.1,3.7,11.1s-12.8,7.4-16.5,12.4s-2.5,11.1-5.4,11.5s-9.9-6.2-14-4.9s-6.6,7-9.9,4.9s-5.8-6.6-9.9-7
	s-2.9-7.8,2.1-11.5s11.1,0.4,14.8,2s10.7-2,13.2-4.9c1.4-1.6,2.7-3.4,3.7-5.3c0,0-11.9-5.4-13.2-4.1s13.2-10.7,13.2-10.7
	s9-7.8,11.1-9.9c0,0-3.3-2.5-13.2,1.2s-19.3,13.6-22.6,15.6s-7.4-2.9-7.4-2.9c-2.7,3.9-6,7.2-9.9,9.9c-6.2,4.1-8.2,8.6-12.3,14.4
	s-12.8,7.8-15.6,3.7s-6.6-0.8-9.9,1.6s-9-1.2-6.2-10.3s7-5.8,13.2-6.6s15.6-3.7,15.6-16.5c0,0-4.9-0.8-10.3,3.3s-12.4-5.8-16.9-5.3
	s-6.5-1.6-6.5-1.6s17.7-15.6,14.4-14.8c-2.1,0.5-4.3,0.2-6.2-0.8l5.8-5.8c0,0-3.7-9.5-5.4-14.8s-1.2-14-4.9-15.6s-4.1-4.1-0.8-8.2
	s0.4-9.5,1.2-12.8S115,62.1,117,62.9z"/>
</svg>
