<?xml version="1.0" encoding="utf-8"?>
<!-- Generator: Adobe Illustrator 23.1.0, SVG Export Plug-In . SVG Version: 6.00 Build 0)  -->
<svg version="1.1" id="Laag_1" xmlns="http://www.w3.org/2000/svg" xmlns:xlink="http://www.w3.org/1999/xlink" x="0px" y="0px"
	 viewBox="0 0 282 274.7" style="enable-background:new 0 0 282 274.7;" xml:space="preserve">
<style type="text/css">
	.st0{fill:#FFCB04;}
	.st1{fill:#263371;}
</style>
<title>logo Westfriesland vector</title>
<polygon class="st0" points="142.8,2.7 204.8,0 241.2,50.1 282,96.8 265.6,156.6 254.4,217.6 197.4,242 142.8,271.3 88.2,242 
	31.2,217.6 20.1,156.6 3.7,96.8 44.4,50.1 80.9,0 "/>
<path class="st1" d="M82.5,62.9c0,0,6.6,7,6.6,14s-7.4,10.3-5.8,16S98.5,111,98.5,111s2.5-18.5,2.1-23.9s-0.4-17.7-0.4-17.7
	s-1.6-9.5,0-10.3s8.6,6.2,8.6,6.2s8.2-2.5,11.9-1.6c2.7,0.6,5.5,1,8.2,1.2l10.3-5.4c0,0-1.6,11.1-3.3,12.8c0,0,2.5,13.2,1.6,16.4
	s3.7,17.7,8.2,19.8c0,0-7.4,8.2-1.2,7.8s44-6.2,62.9,5.8c0,0,11.9-16-6.6-14.4s-18.9-5.4-18.9-5.4s-29.2,4.1-29.2-18.1
	s21.4-19.3,32.9-19.3s24.7-8.6,24.7-8.6s8.2,3.3,3.7,10.3S199.3,76,185.8,76s-21.8,1.6-21.4,7.8s11.1,9,24.7,7.8s21.8,0,27.6,5.3
	s18.9,24.3-0.8,35.4c0,0-1.6,16.5,0.4,19.8s10.7,2.9,10.7,2.9v28.4c0,0-5.4,0.8-5.8,4.1s-3.7,9-9.5,5.8s-5.4,1.2-11.5,1.6
	s-8.6-9.5-6.2-13.6s11.1-2.9,14.4-2.5s7-0.4,6.6-3.3s-0.8-9.9-4.9-9.5s-10.3-1.6-14-7.8s-5.8-14.8-5.8-14.8s-15.2,7-13.6,11.9
	s3.7,11.1,3.7,11.1s-12.8,7.4-16.5,12.4s-2.5,11.1-5.4,11.5s-9.9-6.2-14-4.9s-6.6,7-9.9,4.9s-5.8-6.6-9.9-7s-2.9-7.8,2.1-11.5
	s11.1,0.4,14.8,2s10.7-2,13.2-4.9c1.4-1.6,2.7-3.4,3.7-5.3c0,0-11.9-5.4-13.2-4.1s13.2-10.7,13.2-10.7s9-7.8,11.1-9.9
	c0,0-3.3-2.5-13.2,1.2s-19.3,13.6-22.6,15.6s-7.4-2.9-7.4-2.9c-2.7,3.9-6,7.2-9.9,9.9c-6.2,4.1-8.2,8.6-12.3,14.4
	s-12.8,7.8-15.6,3.7s-6.6-0.8-9.9,1.6s-9-1.2-6.2-10.3s7-5.8,13.2-6.6s15.6-3.7,15.6-16.5c0,0-4.9-0.8-10.3,3.3s-12.4-5.8-16.9-5.3
	s-6.5-1.6-6.5-1.6s17.7-15.6,14.4-14.8c-2.1,0.5-4.3,0.2-6.2-0.8l5.8-5.8c0,0-3.7-9.5-5.4-14.8s-1.2-14-4.9-15.6s-4.1-4.1-0.8-8.2
	s0.4-9.5,1.2-12.8S80.4,62.1,82.5,62.9z"/>
</svg>
